SplineFontDB: 3.0
FontName: Muli-Medium
FullName: Muli Medium
FamilyName: Muli
Weight: Medium
Copyright: 2013 (c) vernon adams
Version: 1
ItalicAngle: 0
UnderlinePosition: 0
UnderlineWidth: 0
Ascent: 800
Descent: 200
UFOAscent: 820.801
UFODescent: -252.93
LayerCount: 2
Layer: 0 0 "Back"  1
Layer: 1 0 "Fore"  0
FSType: 0
OS2Version: 0
OS2_WeightWidthSlopeOnly: 0
OS2_UseTypoMetrics: 1
CreationTime: 1367898900
ModificationTime: 1375814558
PfmFamily: 33
TTFWeight: 500
TTFWidth: 5
LineGap: 0
VLineGap: 0
OS2TypoAscent: 966
OS2TypoAOffset: 0
OS2TypoDescent: -332
OS2TypoDOffset: 0
OS2TypoLinegap: 0
OS2WinAscent: 966
OS2WinAOffset: 0
OS2WinDescent: 332
OS2WinDOffset: 0
HheadAscent: 966
HheadAOffset: 0
HheadDescent: -332
HheadDOffset: 0
OS2Vendor: 'newt'
Lookup: 258 0 0 "'kern' Horizontal Kerning lookup 0"  {"'kern' Horizontal Kerning lookup 0 per glyph data 0"  "'kern' Horizontal Kerning lookup 0 kerning class 1"  } ['kern' ('DFLT' <'dflt' > 'latn' <'dflt' > ) ]
Lookup: 260 0 0 "markMarkPositioninglookup0"  {"markMarkPositioninglookup0 subtable"  } []
MarkAttachClasses: 1
DEI: 91125
KernClass2: 13 21 "'kern' Horizontal Kerning lookup 0 kerning class 1" 
 89 A Aacute Abreve Acircumflex Adieresis Agrave Amacron Aogonek Aring Atilde uni0200 uni0202
 16 D Dcaron uni1E0A
 9 F uni1E1E
 9 K uni0136
 23 L Lacute Lcaron uni013B
 9 P uni1E56
 32 T Tcaron uni0162 uni021A uni1E6A
 1 V
 37 W Wacute Wcircumflex Wdieresis Wgrave
 37 Y Yacute Ycircumflex Ydieresis Ygrave
 9 b uni1E03
 9 f uni1E1F
 89 A Aacute Abreve Acircumflex Adieresis Agrave Amacron Aogonek Aring Atilde uni0200 uni0202
 47 C Cacute Ccaron Ccedilla Ccircumflex Cdotaccent
 48 G Gbreve Gcedilla Gcircumflex Gdotaccent uni01F4
 13 J Jcircumflex
 89 O Oacute Obreve Ocircumflex Odieresis Ograve Ohungarumlaut Omacron Otilde uni020C uni020E
 32 T Tcaron uni0162 uni021A uni1E6A
 1 V
 37 Y Yacute Ycircumflex Ydieresis Ygrave
 89 a aacute abreve acircumflex adieresis agrave amacron aogonek aring atilde uni0201 uni0203
 9 b uni1E03

StartChar: A
Encoding: 33 65 0
Width: 691
VWidth: 0
Flags: MW
AnchorPoint: "ogonek" 615 0 basechar 0
AnchorPoint: "bottom" 359 0 basechar 0
AnchorPoint: "top" 338 750 basechar 0
LayerCount: 2
UndoRedoHistory
Layer: 1
Undoes
EndUndoes
Redoes
EndRedoes
EndUndoRedoHistory
Fore
SplineSet
224 275 m 1
 462 275 l 1
 343 600 l 1
 224 275 l 1
11 0 m 1
 291 711 l 1
 399 711 l 1
 681 0 l 1
 567 0 l 1
 493 189 l 1
 195 189 l 1
 123 0 l 1
 11 0 l 1
EndSplineSet
EndChar

StartChar: AE
Encoding: 132 198 1
Width: 1031
VWidth: 0
Flags: MW
LayerCount: 2
UndoRedoHistory
Layer: 1
Undoes
EndUndoes
Redoes
EndRedoes
EndUndoRedoHistory
Fore
SplineSet
282 269 m 1
 527 269 l 1
 501 621 l 1
 480 621 l 1
 282 269 l 1
11 0 m 1
 424 711 l 1
 935 711 l 1
 935 621 l 1
 604 621 l 1
 622 409 l 1
 924 409 l 1
 924 322 l 1
 632 322 l 1
 653 89 l 1
 947 89 l 1
 947 0 l 1
 551 0 l 1
 535 188 l 1
 240 188 l 1
 133 0 l 1
 11 0 l 1
EndSplineSet
EndChar

StartChar: B
Encoding: 34 66 11
Width: 662
VWidth: 0
Flags: MW
AnchorPoint: "bottom" 330 0 basechar 0
AnchorPoint: "top" 342 750 basechar 0
LayerCount: 2
UndoRedoHistory
Layer: 1
Undoes
EndUndoes
Redoes
EndRedoes
EndUndoRedoHistory
Fore
SplineSet
199 416 m 1
 311 416 l 2
 390 416 464 438 464 524 c 0
 464 608 398 623 297 623 c 2
 199 623 l 1
 199 416 l 1
200 89 m 1
 332 89 l 2
 439 89 497 132 497 209 c 0
 497 303 446 330 321 330 c 2
 200 330 l 1
 200 89 l 1
96 0 m 1
 96 711 l 1
 281 711 l 2
 409 711 573 698 573 538 c 0
 573 468 539 407 461 382 c 1
 555 363 607 297 607 206 c 0
 607 98 523 0 351 0 c 2
 96 0 l 1
EndSplineSet
EndChar

StartChar: C
Encoding: 35 67 12
Width: 684
VWidth: 0
Flags: MW
AnchorPoint: "bottom" 403 -10 basechar 0
AnchorPoint: "top" 386 750 basechar 0
LayerCount: 2
UndoRedoHistory
Layer: 1
Undoes
EndUndoes
Redoes
EndRedoes
EndUndoRedoHistory
Fore
SplineSet
404 -11 m 0
 222 -11 52 111 52 352 c 0
 52 577 205 722 398 722 c 0
 482 722 559 704 626 649 c 1
 585 578 l 1
 527 620 468 636 407 636 c 0
 257 636 161 510 161 353 c 0
 161 181 267 77 410 77 c 0
 476 77 543 98 609 149 c 1
 644 66 l 1
 572 12 489 -11 404 -11 c 0
EndSplineSet
EndChar

StartChar: D
Encoding: 36 68 18
Width: 753
VWidth: 0
Flags: MW
AnchorPoint: "bottom" 330 0 basechar 0
AnchorPoint: "top" 342 750 basechar 0
LayerCount: 2
UndoRedoHistory
Layer: 1
Undoes
EndUndoes
Redoes
EndRedoes
EndUndoRedoHistory
Fore
SplineSet
96 0 m 1
 96 711 l 1
 269 711 l 2
 541 711 702 606 702 356 c 0
 702 131 563 0 306 0 c 2
 96 0 l 1
199 88 m 1
 312 88 l 2
 501 88 592 190 592 356 c 0
 592 541 492 623 280 623 c 2
 199 623 l 1
 199 88 l 1
EndSplineSet
EndChar

StartChar: Dcroat
Encoding: 206 272 20
Width: 734
VWidth: 0
Flags: MW
LayerCount: 2
UndoRedoHistory
Layer: 1
Undoes
EndUndoes
Redoes
EndRedoes
EndUndoRedoHistory
Fore
SplineSet
199 88 m 1
 312 88 l 2
 501 88 592 190 592 356 c 0
 592 541 492 623 280 623 c 2
 199 623 l 1
 199 394 l 1
 328 394 l 1
 328 330 l 1
 199 330 l 1
 199 88 l 1
96 330 m 1
 9 330 l 1
 9 394 l 1
 96 394 l 1
 96 711 l 1
 269 711 l 2
 541 711 702 606 702 356 c 0
 702 131 563 0 306 0 c 2
 96 0 l 1
 96 330 l 1
EndSplineSet
EndChar

StartChar: E
Encoding: 37 69 21
Width: 585
VWidth: 0
Flags: MW
AnchorPoint: "ogonek" 415 0 basechar 0
AnchorPoint: "bottom" 403 0 basechar 0
AnchorPoint: "top" 320 750 basechar 0
LayerCount: 2
UndoRedoHistory
Layer: 1
Undoes
EndUndoes
Redoes
EndRedoes
EndUndoRedoHistory
Fore
SplineSet
96 0 m 1
 96 711 l 1
 529 711 l 1
 529 623 l 1
 199 623 l 1
 199 415 l 1
 511 415 l 1
 511 327 l 1
 200 327 l 1
 200 88 l 1
 543 88 l 1
 543 0 l 1
 96 0 l 1
EndSplineSet
EndChar

StartChar: Eng
Encoding: 264 330 30
Width: 774
VWidth: 0
Flags: MW
LayerCount: 2
UndoRedoHistory
Layer: 1
Undoes
EndUndoes
Redoes
EndRedoes
EndUndoRedoHistory
Fore
SplineSet
286 -108 m 1
 347 -124 400 -134 445 -134 c 0
 529 -134 582 -100 582 -7 c 2
 582 34 l 1
 241 501 l 1
 192 573 l 1
 192 0 l 1
 93 0 l 1
 93 711 l 1
 206 711 l 1
 532 257 l 1
 582 182 l 1
 582 711 l 1
 682 711 l 1
 682 34 l 2
 682 -130 606 -214 445 -214 c 0
 396 -214 338 -206 273 -190 c 1
 286 -108 l 1
EndSplineSet
EndChar

StartChar: Eth
Encoding: 142 208 32
Width: 734
VWidth: 0
Flags: MW
LayerCount: 2
UndoRedoHistory
Layer: 1
Undoes
EndUndoes
Redoes
EndRedoes
EndUndoRedoHistory
Fore
SplineSet
9 394 m 1
 328 394 l 1
 328 330 l 1
 9 330 l 1
 9 394 l 1
EndSplineSet
Refer: 18 68 N 1 0 0 1 0 0 2
EndChar

StartChar: Euro
Encoding: 416 8364 33
Width: 740
VWidth: 0
Flags: MW
LayerCount: 2
UndoRedoHistory
Layer: 1
Undoes
EndUndoes
Redoes
EndRedoes
EndUndoRedoHistory
Fore
SplineSet
57 244 m 1
 68 311 l 1
 127 311 l 1
 126 324 125 338 125 352 c 0
 125 364 125 376 126 387 c 1
 55 387 l 1
 68 452 l 1
 136 452 l 1
 174 619 308 722 471 722 c 0
 555 722 632 704 699 649 c 1
 658 578 l 1
 600 620 541 636 480 636 c 0
 363 636 280 560 248 452 c 1
 525 452 l 1
 514 387 l 1
 236 387 l 1
 235 376 234 365 234 353 c 0
 234 339 235 325 236 311 c 1
 509 311 l 1
 499 244 l 1
 250 244 l 1
 285 138 373 77 483 77 c 0
 549 77 616 98 682 149 c 1
 717 66 l 1
 645 12 562 -11 477 -11 c 0
 325 -11 181 75 138 244 c 1
 57 244 l 1
EndSplineSet
EndChar

StartChar: F
Encoding: 38 70 34
Width: 548
VWidth: 0
Flags: MW
AnchorPoint: "bottom" 330 0 basechar 0
AnchorPoint: "top" 342 750 basechar 0
LayerCount: 2
UndoRedoHistory
Layer: 1
Undoes
EndUndoes
Redoes
EndRedoes
EndUndoRedoHistory
Fore
SplineSet
96 0 m 1
 96 711 l 1
 514 711 l 1
 514 623 l 1
 199 623 l 1
 199 416 l 1
 493 416 l 1
 493 328 l 1
 199 328 l 1
 199 0 l 1
 96 0 l 1
EndSplineSet
EndChar

StartChar: G
Encoding: 39 71 35
Width: 747
VWidth: 0
Flags: MW
AnchorPoint: "bottom" 403 -10 basechar 0
AnchorPoint: "top" 405 750 basechar 0
LayerCount: 2
UndoRedoHistory
Layer: 1
Undoes
EndUndoes
Redoes
EndRedoes
EndUndoRedoHistory
Fore
SplineSet
414 -11 m 0
 177 -11 53 130 53 343 c 0
 53 562 204 722 423 722 c 0
 534 722 605 693 658 653 c 1
 617 581 l 1
 569 615 508 636 425 636 c 0
 264 636 160 511 160 349 c 0
 160 189 242 77 418 77 c 0
 466 77 519 85 562 100 c 1
 562 290 l 1
 387 290 l 1
 387 378 l 1
 666 378 l 1
 666 42 l 1
 582 4 497 -11 414 -11 c 0
EndSplineSet
EndChar

StartChar: H
Encoding: 40 72 40
Width: 762
VWidth: 0
Flags: MW
AnchorPoint: "bottom" 385 0 basechar 0
AnchorPoint: "top" 387 750 basechar 0
LayerCount: 2
UndoRedoHistory
Layer: 1
Undoes
EndUndoes
Redoes
EndRedoes
EndUndoRedoHistory
Fore
SplineSet
96 0 m 1
 96 711 l 1
 199 711 l 1
 199 408 l 1
 562 408 l 1
 562 711 l 1
 666 711 l 1
 666 0 l 1
 563 0 l 1
 563 321 l 1
 200 321 l 1
 200 0 l 1
 96 0 l 1
EndSplineSet
EndChar

StartChar: Hbar
Encoding: 228 294 41
Width: 751
VWidth: 0
Flags: MW
LayerCount: 2
UndoRedoHistory
Layer: 1
Undoes
EndUndoes
Redoes
EndRedoes
EndUndoRedoHistory
Fore
SplineSet
40 559 m 1
 40 618 l 1
 712 618 l 1
 712 559 l 1
 40 559 l 1
EndSplineSet
Refer: 40 72 N 1 0 0 1 0 0 2
EndChar

StartChar: I
Encoding: 41 73 43
Width: 294
VWidth: 0
Flags: MW
AnchorPoint: "bottom" 140 0 basechar 0
AnchorPoint: "top" 146 750 basechar 0
LayerCount: 2
UndoRedoHistory
Layer: 1
Undoes
EndUndoes
Redoes
EndRedoes
EndUndoRedoHistory
Fore
SplineSet
104 0 m 1
 104 711 l 1
 207 711 l 1
 207 0 l 1
 104 0 l 1
EndSplineSet
EndChar

StartChar: J
Encoding: 42 74 54
Width: 398
VWidth: 0
Flags: MW
AnchorPoint: "top" 252 740 basechar 0
LayerCount: 2
UndoRedoHistory
Layer: 1
Undoes
EndUndoes
Redoes
EndRedoes
EndUndoRedoHistory
Fore
SplineSet
128 -161 m 0
 79 -161 31 -149 -4 -136 c 1
 12 -55 l 1
 39 -64 76 -73 113 -73 c 0
 183 -73 201 -27 201 57 c 2
 201 711 l 1
 305 711 l 1
 305 58 l 2
 305 -87 242 -161 128 -161 c 0
EndSplineSet
EndChar

StartChar: K
Encoding: 43 75 56
Width: 640
VWidth: 0
Flags: MW
AnchorPoint: "bottom" 354 0 basechar 0
AnchorPoint: "top" 326 750 basechar 0
LayerCount: 2
UndoRedoHistory
Layer: 1
Undoes
EndUndoes
Redoes
EndRedoes
EndUndoRedoHistory
Fore
SplineSet
96 0 m 1
 96 711 l 1
 199 711 l 1
 199 394 l 1
 495 711 l 1
 624 711 l 1
 302 368 l 1
 647 0 l 1
 515 0 l 1
 200 332 l 1
 200 0 l 1
 96 0 l 1
EndSplineSet
EndChar

StartChar: L
Encoding: 44 76 57
Width: 548
VWidth: 0
Flags: MW
AnchorPoint: "bottom" 340 0 basechar 0
AnchorPoint: "top" 283 750 basechar 0
LayerCount: 2
UndoRedoHistory
Layer: 1
Undoes
EndUndoes
Redoes
EndRedoes
EndUndoRedoHistory
Fore
SplineSet
96 0 m 1
 96 711 l 1
 199 711 l 1
 199 88 l 1
 529 88 l 1
 529 0 l 1
 96 0 l 1
EndSplineSet
EndChar

StartChar: Lslash
Encoding: 255 321 61
Width: 557
VWidth: 0
Flags: MW
LayerCount: 2
UndoRedoHistory
Layer: 1
Undoes
EndUndoes
Redoes
EndRedoes
EndUndoRedoHistory
Fore
SplineSet
345 430 m 1
 23 223 l 1
 23 311 l 1
 345 518 l 1
 345 430 l 1
EndSplineSet
Refer: 57 76 N 1 0 0 1 0 0 2
EndChar

StartChar: M
Encoding: 45 77 62
Width: 947
VWidth: 0
Flags: MW
AnchorPoint: "bottom" 477 0 basechar 0
AnchorPoint: "top" 474 750 basechar 0
LayerCount: 2
UndoRedoHistory
Layer: 1
Undoes
EndUndoes
Redoes
EndRedoes
EndUndoRedoHistory
Fore
SplineSet
96 0 m 1
 96 711 l 1
 221 711 l 1
 305.703119783 518.703119783 389.684401303 325.684401303 475 134 c 1
 556.960346698 328.706319969 643.802158949 518.531174384 728 711 c 1
 852 711 l 1
 852 0 l 1
 754 0 l 1
 754 542 l 1
 672.12882803 362.537838637 592.787075524 180.54625781 512 0 c 1
 436 0 l 1
 356.128985985 180.795652652 274.456426748 359.789760081 196 542 c 1
 196 0 l 1
 96 0 l 1
EndSplineSet
EndChar

StartChar: N
Encoding: 46 78 63
Width: 783
VWidth: 0
Flags: MW
AnchorPoint: "bottom" 393 0 basechar 0
AnchorPoint: "top" 395 750 basechar 0
LayerCount: 2
UndoRedoHistory
Layer: 1
Undoes
EndUndoes
Redoes
EndRedoes
EndUndoRedoHistory
Fore
SplineSet
96 0 m 1
 96 711 l 1
 207 711 l 1
 540 223 l 1
 590 143 l 1
 590 711 l 1
 688 711 l 1
 688 0 l 1
 577 0 l 1
 257 463 l 1
 192 565 l 1
 192 0 l 1
 96 0 l 1
EndSplineSet
EndChar

StartChar: O
Encoding: 47 79 67
Width: 800
VWidth: 0
Flags: MW
AnchorPoint: "bottom" 403 -10 basechar 0
AnchorPoint: "top" 401 750 basechar 0
LayerCount: 2
UndoRedoHistory
Layer: 1
Undoes
EndUndoes
Redoes
EndRedoes
EndUndoRedoHistory
Fore
SplineSet
402 -11 m 0
 182 -11 52 133 52 357 c 0
 52 573 181 722 403 722 c 0
 617 722 749 573 749 357 c 0
 749 134 621 -11 402 -11 c 0
400 77 m 0
 561 77 636 188 636 357 c 0
 636 519 562 636 402 636 c 0
 244 636 163 518 163 357 c 0
 163 187 241 77 400 77 c 0
EndSplineSet
EndChar

StartChar: OE
Encoding: 272 338 68
Width: 1001
VWidth: 0
Flags: MW
LayerCount: 2
UndoRedoHistory
Layer: 1
Undoes
EndUndoes
Redoes
EndRedoes
EndUndoRedoHistory
Fore
SplineSet
398 73 m 0
 486 74 528 108 544 126 c 1
 544 588 l 1
 519.741378116 610.392574047 476.331016313 635.396748991 404.834398877 635.396748991 c 0
 399.702093935 635.396748991 394.425062593 635.267904326 389 635 c 0
 255 630 164 526 164 354 c 0
 164 185.481516719 247.524938845 72.9738747815 394.119078388 72.9738747815 c 0
 395.407848999 72.9738747815 396.70149417 72.9825703915 398 73 c 0
396 -11 m 0
 391.598619018 -11.1307340886 387.225723707 -11.1959511365 382.88216232 -11.1959511365 c 0
 187.879335893 -11.1959511365 52 120.251152557 52 356 c 0
 52 577 192 721 386 722 c 0
 387.472687314 722.015340493 388.934314084 722.022915072 390.384920021 722.022915072 c 0
 483.494896394 722.022915072 531.199426407 690.815914086 544 679 c 1
 544 711 l 1
 944 711 l 1
 944 622 l 1
 647 622 l 1
 647 409 l 1
 925 409 l 1
 925 319 l 1
 648 319 l 1
 648 89 l 1
 958 89 l 1
 958 0 l 1
 544 0 l 1
 544 41 l 1
 528 25 477 -9 396 -11 c 0
EndSplineSet
EndChar

StartChar: Omega
Encoding: 374 937 76
Width: 782
VWidth: 0
Flags: MW
LayerCount: 2
UndoRedoHistory
Layer: 1
Undoes
EndUndoes
Redoes
EndRedoes
EndUndoRedoHistory
Fore
SplineSet
44 0 m 1
 33 77 l 1
 188 77 l 1
 106 146 48 271 48 396 c 0
 48 596 193 722 388 722 c 0
 591 722 718 581 718 393 c 0
 718 265 650 142 575 77 c 1
 717 77 l 1
 709 0 l 1
 443 0 l 1
 443 71 l 1
 539 136 610 260 610 385 c 0
 610 521 535 636 387 636 c 0
 251 636 156 536 156 387 c 0
 156 263 223 135 321 71 c 1
 321 0 l 1
 44 0 l 1
EndSplineSet
EndChar

StartChar: Oslash
Encoding: 150 216 77
Width: 800
VWidth: 0
Flags: MW
LayerCount: 2
UndoRedoHistory
Layer: 1
Undoes
EndUndoes
Redoes
EndRedoes
EndUndoRedoHistory
Fore
SplineSet
214 -61 m 1
 165 -36 l 1
 205 40 l 1
 107 101 52 212 52 357 c 0
 52 573 181 722 403 722 c 0
 459 722 508 712 552 693 c 1
 590 764 l 1
 639 739 l 1
 601 667 l 1
 695 605 749 495 749 357 c 0
 749 134 621 -11 402 -11 c 0
 347 -11 297 -2 254 15 c 1
 214 -61 l 1
400 77 m 0
 561 77 636 188 636 357 c 0
 636 453 610 533 556 582 c 1
 297 96 l 1
 326 83 361 77 400 77 c 0
250 125 m 1
 510 613 l 1
 480 628 444 636 402 636 c 0
 244 636 163 518 163 357 c 0
 163 254 192 173 250 125 c 1
EndSplineSet
EndChar

StartChar: P
Encoding: 48 80 79
Width: 620
VWidth: 0
Flags: MW
AnchorPoint: "bottom" 330 0 basechar 0
AnchorPoint: "top" 342 750 basechar 0
LayerCount: 2
UndoRedoHistory
Layer: 1
Undoes
EndUndoes
Redoes
EndRedoes
EndUndoRedoHistory
Fore
SplineSet
199 405 m 1
 322 405 l 2
 420 405 481 426 481 513 c 0
 481 612 415 623 302 623 c 2
 199 623 l 1
 199 405 l 1
96 0 m 1
 96 711 l 1
 299 711 l 2
 466 711 587 686 587 514 c 0
 587 364 483 317 323 317 c 2
 199 317 l 1
 199 0 l 1
 96 0 l 1
EndSplineSet
EndChar

StartChar: Q
Encoding: 49 81 80
Width: 800
VWidth: 0
Flags: MW
LayerCount: 2
UndoRedoHistory
Layer: 1
Undoes
EndUndoes
Redoes
EndRedoes
EndUndoRedoHistory
Fore
SplineSet
604 -212 m 1
 604 -212 505 -121 448 -4 c 1
 542 14 l 1
 584 -71 665 -147 665 -147 c 1
 604 -212 l 1
EndSplineSet
Refer: 67 79 N 1 0 0 1 0 0 2
EndChar

StartChar: R
Encoding: 50 82 81
Width: 663
VWidth: 0
Flags: MW
AnchorPoint: "bottom" 330 0 basechar 0
AnchorPoint: "top" 342 750 basechar 0
LayerCount: 2
UndoRedoHistory
Layer: 1
Undoes
EndUndoes
Redoes
EndRedoes
EndUndoRedoHistory
Fore
SplineSet
198 401 m 1
 320 401 l 2
 400 401 464 424 464 514 c 0
 464 602 421 623 330 623 c 2
 198 623 l 1
 198 401 l 1
96 0 m 1
 96 711 l 1
 327 711 l 2
 458 711 574 682 574 521 c 0
 574 438 534 374 437 351 c 1
 490 331 517 280 543 216 c 2
 630 0 l 1
 518 0 l 1
 438 211 l 2
 408 290 388 313 312 313 c 2
 199 313 l 1
 199 0 l 1
 96 0 l 1
EndSplineSet
EndChar

StartChar: S
Encoding: 51 83 85
Width: 603
VWidth: 0
Flags: MW
AnchorPoint: "bottom" 299 -10 basechar 0
AnchorPoint: "top" 295 750 basechar 0
LayerCount: 2
UndoRedoHistory
Layer: 1
Undoes
EndUndoes
Redoes
EndRedoes
EndUndoRedoHistory
Fore
SplineSet
299 -11 m 0
 184 -11 93 38 62 69 c 1
 107 145 l 1
 140 119 218 77 295 77 c 0
 388 77 436 117 436 188 c 0
 436 256 413 284 268 326 c 1
 135 366 66 415 66 534 c 0
 66 660 173 722 306 722 c 0
 437 722 496 682 532 647 c 1
 480 577 l 1
 447 608 388 636 320 636 c 0
 239 636 177 606 177 538 c 0
 177 468 200 449 329 410 c 0
 496 359 545 305 545 188 c 0
 545 50 430 -11 299 -11 c 0
EndSplineSet
EndChar

StartChar: T
Encoding: 52 84 91
Width: 564
VWidth: 0
Flags: MW
AnchorPoint: "bottom" 283 0 basechar 0
AnchorPoint: "top" 283 750 basechar 0
LayerCount: 2
UndoRedoHistory
Layer: 1
Undoes
EndUndoes
Redoes
EndRedoes
EndUndoRedoHistory
Fore
SplineSet
229 0 m 1
 229 623 l 1
 5 623 l 1
 5 711 l 1
 560 711 l 1
 560 623 l 1
 333 623 l 1
 333 0 l 1
 229 0 l 1
EndSplineSet
EndChar

StartChar: Tbar
Encoding: 292 358 92
Width: 564
VWidth: 0
Flags: MW
LayerCount: 2
UndoRedoHistory
Layer: 1
Undoes
EndUndoes
Redoes
EndRedoes
EndUndoRedoHistory
Fore
SplineSet
104 310 m 1
 104 382 l 1
 458 382 l 1
 458 310 l 1
 104 310 l 1
EndSplineSet
Refer: 91 84 N 1 0 0 1 0 0 2
EndChar

StartChar: Thorn
Encoding: 156 222 94
Width: 627
VWidth: 0
Flags: MW
LayerCount: 2
UndoRedoHistory
Layer: 1
Undoes
EndUndoes
Redoes
EndRedoes
EndUndoRedoHistory
Fore
SplineSet
199 254 m 1
 319 254 l 2
 416 254 480 291 480 378 c 0
 480 482 414 506 302 506 c 2
 199 506 l 1
 199 254 l 1
96 0 m 1
 96 711 l 1
 199 711 l 1
 199 592 l 1
 296 592 l 2
 463 592 591 558 591 379 c 0
 591 228 468 168 313 168 c 2
 199 168 l 1
 199 0 l 1
 96 0 l 1
EndSplineSet
EndChar

StartChar: U
Encoding: 53 85 95
Width: 731
VWidth: 0
Flags: MW
AnchorPoint: "ogonek" 415 0 basechar 0
AnchorPoint: "bottom" 403 -10 basechar 0
AnchorPoint: "top" 369 750 basechar 0
LayerCount: 2
UndoRedoHistory
Layer: 1
Undoes
EndUndoes
Redoes
EndRedoes
EndUndoRedoHistory
Fore
SplineSet
365 -11 m 0
 145 -11 82 117 82 279 c 2
 82 711 l 1
 186 711 l 1
 186 277 l 2
 186 136 248 77 366 77 c 0
 479 77 547 135 547 275 c 2
 547 711 l 1
 650 711 l 1
 650 280 l 2
 650 113 577 -11 365 -11 c 0
EndSplineSet
EndChar

StartChar: V
Encoding: 54 86 106
Width: 654
VWidth: 0
Flags: MW
LayerCount: 2
UndoRedoHistory
Layer: 1
Undoes
EndUndoes
Redoes
EndRedoes
EndUndoRedoHistory
Fore
SplineSet
275 0 m 1
 7 711 l 1
 123 711 l 1
 192.106934568 516.773601235 259.292317045 320.625650378 330 128 c 1
 399.353977473 322.646022527 469.355557206 516.644442794 539 711 c 1
 647 711 l 1
 381 0 l 1
 275 0 l 1
EndSplineSet
EndChar

StartChar: W
Encoding: 55 87 107
Width: 985
VWidth: 0
Flags: MW
AnchorPoint: "bottom" 497 0 basechar 0
AnchorPoint: "top" 500 750 basechar 0
LayerCount: 2
UndoRedoHistory
Layer: 1
Undoes
EndUndoes
Redoes
EndRedoes
EndUndoRedoHistory
Fore
SplineSet
206 0 m 1
 9 711 l 1
 120 711 l 1
 239 250 l 1
 270 120 l 1
 324.32197165 321.011361684 386.768599726 513.89806694 445 711 c 1
 548 711 l 1
 690 246 l 1
 726 120 l 1
 769.196000151 321.803999849 822.176127564 513.823872436 870 711 c 1
 977 711 l 1
 785 0 l 1
 664 0 l 1
 494 571 l 1
 325 0 l 1
 206 0 l 1
EndSplineSet
EndChar

StartChar: X
Encoding: 56 88 112
Width: 633
VWidth: 0
Flags: MW
LayerCount: 2
UndoRedoHistory
Layer: 1
Undoes
EndUndoes
Redoes
EndRedoes
EndUndoRedoHistory
Fore
SplineSet
505 0 m 1
 317 278 l 1
 128 0 l 1
 7 0 l 1
 258 361 l 1
 19 711 l 1
 145 711 l 1
 322 448 l 1
 503 711 l 1
 622 711 l 1
 381 365 l 1
 630 0 l 1
 505 0 l 1
EndSplineSet
EndChar

StartChar: Y
Encoding: 57 89 113
Width: 605
VWidth: 0
Flags: MW
AnchorPoint: "bottom" 305 0 basechar 0
AnchorPoint: "top" 303 750 basechar 0
LayerCount: 2
UndoRedoHistory
Layer: 1
Undoes
EndUndoes
Redoes
EndRedoes
EndUndoRedoHistory
Fore
SplineSet
250 0 m 1
 250 279 l 1
 3 711 l 1
 119 711 l 1
 304 370 l 1
 490 711 l 1
 607 711 l 1
 354 280 l 1
 354 0 l 1
 250 0 l 1
EndSplineSet
EndChar

StartChar: Z
Encoding: 58 90 118
Width: 578
VWidth: 0
Flags: MW
AnchorPoint: "bottom" 330 0 basechar 0
AnchorPoint: "top" 342 750 basechar 0
LayerCount: 2
UndoRedoHistory
Layer: 1
Undoes
EndUndoes
Redoes
EndRedoes
EndUndoRedoHistory
Fore
SplineSet
43 0 m 1
 43 56 l 1
 395 623 l 1
 57 623 l 1
 57 711 l 1
 535 711 l 1
 535 657 l 1
 180 88 l 1
 533 88 l 1
 533 0 l 1
 43 0 l 1
EndSplineSet
EndChar

StartChar: a
Encoding: 65 97 122
Width: 625
VWidth: 0
Flags: MW
AnchorPoint: "ogonek" 485 0 basechar 0
AnchorPoint: "bottom" 301 0 basechar 0
AnchorPoint: "top" 311 562 basechar 0
LayerCount: 2
UndoRedoHistory
Layer: 1
Undoes
EndUndoes
Redoes
EndRedoes
EndUndoRedoHistory
Fore
SplineSet
305 432 m 0
 198 432 152 352 152 252 c 0
 152 153 198 71 306 71 c 0
 406 71 453 147 453 254 c 0
 453 354 406 432 305 432 c 0
449 426 m 1
 449 501 l 1
 548 501 l 1
 548 0 l 1
 448 0 l 1
 448 81 l 1
 420 25 362 -11 291 -11 c 0
 134 -11 51 114 51 249 c 0
 51 392 143 514 290 514 c 0
 360 514 420 475 449 426 c 1
EndSplineSet
EndChar

StartChar: acute
Encoding: 115 180 126
Width: 296
VWidth: 0
Flags: MW
LayerCount: 2
UndoRedoHistory
Layer: 1
Undoes
EndUndoes
Redoes
EndRedoes
EndUndoRedoHistory
Fore
SplineSet
30 572 m 1
 150 757 l 1
 279 757 l 1
 117 572 l 1
 30 572 l 1
EndSplineSet
EndChar

StartChar: ae
Encoding: 164 230 128
Width: 872
VWidth: 0
Flags: MW
LayerCount: 2
UndoRedoHistory
Layer: 1
Undoes
EndUndoes
Redoes
EndRedoes
EndUndoRedoHistory
Fore
SplineSet
479 303 m 1
 734 303 l 1
 733 309 l 1
 724 387 678 434 611 434 c 0
 532 434 491 374 479 303 c 1
237 69 m 0
 340 69 378 153 379 234 c 1
 313 234 l 2
 225 234 140 215 140 145 c 0
 140 90 186 69 237 69 c 0
228 -12 m 0
 118 -12 41 44 41 141 c 0
 41 283 169 305 361 305 c 2
 378 305 l 1
 378 381 338 434 259 434 c 0
 203 434 140 410 106 394 c 1
 77 463 l 1
 89 470 166 514 275 514 c 0
 335 514 411 483 438 419 c 1
 475 477 533 513 604 514 c 0
 605.29580111 514.0177507 606.585851877 514.026600182 607.870152298 514.026600182 c 0
 751.290050766 514.026600182 823 403.668697489 823 255 c 0
 823 249 821 234 821 234 c 1
 479 234 l 1
 479 222 l 1
 483 130 527 75 619 71 c 0
 622.152542373 70.8644067797 625.277506464 70.7989083597 628.373139415 70.7989083597 c 0
 716.598678541 70.7989083597 781 124 781 124 c 1
 810 51 l 1
 810 51 742.166883374 -11.1007405732 624.243718857 -11.1007405732 c 0
 621.52241506 -11.1007405732 618.77443609 -11.0676691729 616 -11 c 1
 532 -10 462 35 427 104 c 1
 391 35 317 -12 228 -12 c 0
EndSplineSet
EndChar

StartChar: ampersand
Encoding: 6 38 131
Width: 757
VWidth: 0
Flags: MW
LayerCount: 2
UndoRedoHistory
Layer: 1
Undoes
EndUndoes
Redoes
EndRedoes
EndUndoRedoHistory
Fore
SplineSet
293 456 m 1
 340 485 385 527 385 574 c 0
 385 623 346 642 312 642 c 0
 270 642 238 620 238 574 c 0
 238 532 258 491 293 456 c 1
307 75 m 0
 378 75 425 104 466 146 c 1
 275 351 l 1
 214 317 163 278 163 203 c 0
 163 128 222 75 307 75 c 0
307 -12 m 0
 167 -12 61 68 61 203 c 0
 61 309 136 366 219 415 c 1
 173 466 141 513 141 576 c 0
 141 674 216 722 308 722 c 0
 395 722 482 678 482 579 c 0
 482 504 420 439 352 397 c 1
 518 216 l 1
 556 281 576 365 576 447 c 1
 668 430 l 1
 666 330 634 222 582 145 c 1
 618 108 674 69 735 53 c 1
 669 -6 l 1
 607 4 560 45 525 82 c 1
 473 29 401 -12 307 -12 c 0
EndSplineSet
EndChar

StartChar: approxequal
Encoding: 428 8776 133
Width: 659
VWidth: 0
Flags: MW
LayerCount: 2
UndoRedoHistory
Layer: 1
Undoes
EndUndoes
Redoes
EndRedoes
EndUndoRedoHistory
Fore
SplineSet
161 321 m 1
 83 338 l 1
 102 421 156 474 236 474 c 0
 279 474 316 458 360 432 c 0
 400 409 430 396 450 396 c 0
 483 396 505 425 523 477 c 1
 597 459 l 1
 578 376 530 323 447 323 c 0
 404 323 367 338 314 369 c 0
 284 387 258 401 235 401 c 0
 198 401 175 368 161 321 c 1
160 119 m 1
 83 140 l 1
 104 223 159 275 237 275 c 0
 282 275 326 254 365 233 c 1
 400 217 429 197 450 197 c 0
 484 197 505 227 524 278 c 1
 598 259 l 1
 578 178 533 124 448 124 c 0
 408 124 367 141 316 171 c 0
 287 187 259 201 237 201 c 0
 198 201 173 169 160 119 c 1
EndSplineSet
EndChar

StartChar: asciicircum
Encoding: 62 94 135
Width: 783
VWidth: 0
Flags: MW
LayerCount: 2
UndoRedoHistory
Layer: 1
Undoes
EndUndoes
Redoes
EndRedoes
EndUndoRedoHistory
Fore
SplineSet
118 270 m 1
 358 711 l 1
 422 711 l 1
 666 270 l 1
 567 270 l 1
 389 600 l 1
 219 270 l 1
 118 270 l 1
EndSplineSet
EndChar

StartChar: asciitilde
Encoding: 94 126 136
Width: 652
VWidth: 0
Flags: MW
LayerCount: 2
UndoRedoHistory
Layer: 1
Undoes
EndUndoes
Redoes
EndRedoes
EndUndoRedoHistory
Fore
SplineSet
156 176 m 1
 81 212 l 1
 96 283 147 344 231 344 c 0
 272 344 321 323 363 304 c 1
 380 298 431 275 449 275 c 0
 484 275 509 318 519 362 c 1
 602 336 l 1
 583 253 531 193 449 193 c 0
 418 193 377 210 337 229 c 0
 320 236 259 263 233 263 c 0
 190 263 167 222 156 176 c 1
EndSplineSet
EndChar

StartChar: asterisk
Encoding: 10 42 137
Width: 533
VWidth: 0
Flags: MW
LayerCount: 2
UndoRedoHistory
Layer: 1
Undoes
EndUndoes
Redoes
EndRedoes
EndUndoRedoHistory
Fore
SplineSet
348 336 m 1
 268 462 l 1
 188 338 l 1
 114 388 l 1
 212 501 l 1
 80 549 l 1
 110 625 l 1
 234 565 l 1
 218 711 l 1
 312 711 l 1
 302 565 l 1
 418 625 l 1
 454 549 l 1
 322 501 l 1
 424 385 l 1
 348 336 l 1
EndSplineSet
EndChar

StartChar: at
Encoding: 32 64 138
Width: 870
VWidth: 0
Flags: MW
LayerCount: 2
UndoRedoHistory
Layer: 1
Undoes
EndUndoes
Redoes
EndRedoes
EndUndoRedoHistory
Fore
SplineSet
404 206 m 0
 477 206 534 303 534 402 c 0
 534 451 508 484 464 484 c 0
 385 484 330 375 330 289 c 0
 330 239 360 206 404 206 c 0
455 -45 m 0
 228 -45 52 99 52 330 c 0
 52 573 241 722 461 722 c 0
 662 722 818 584 818 389 c 0
 818 251 733 124 635 124 c 0
 569 124 534 162 534 225 c 1
 514 172 461 128 392 128 c 0
 316.899883962 128 234.964554627 186.587542545 234.964554627 300.867936026 c 0
 234.964554627 446.337091269 352.857155409 557 454 557 c 0
 503 557 545 538 559 493 c 1
 570 544 l 1
 656 544 l 1
 606 301 l 2
 598 262 595 242 595 221 c 0
 595 201 604 179 628 179 c 0
 682 179 750 272 750 391 c 0
 750 559 616 655 463 655 c 0
 286 655 136 542 136 330 c 0
 136 124 291 21 461 21 c 0
 543 21 632 44 700 94 c 1
 736 48 l 1
 666 -15 559 -45 455 -45 c 0
EndSplineSet
EndChar

StartChar: b
Encoding: 66 98 140
Width: 624
VWidth: 0
Flags: MW
AnchorPoint: "bottom" 403 0 basechar 0
AnchorPoint: "top" 335 610 basechar 0
LayerCount: 2
UndoRedoHistory
Layer: 1
Undoes
EndUndoes
Redoes
EndRedoes
EndUndoRedoHistory
Fore
SplineSet
331 71 m 0
 424 71 470 146 470 256 c 0
 470 357 419 432 330 432 c 0
 235 432 178 356 178 251 c 0
 178 146 234 71 331 71 c 0
345 -11 m 0
 263 -11 204 32 181 77 c 1
 181 0 l 1
 78 0 l 1
 80 61 82 117 82 132 c 2
 82 722 l 1
 182 722 l 1
 182 422 l 1
 201 461 255 514 347 514 c 0
 486 514 575 412 575 258 c 0
 575 94 475 -11 345 -11 c 0
EndSplineSet
EndChar

StartChar: backslash
Encoding: 60 92 141
Width: 412
VWidth: 0
Flags: MW
LayerCount: 2
UndoRedoHistory
Layer: 1
Undoes
EndUndoes
Redoes
EndRedoes
EndUndoRedoHistory
Fore
SplineSet
304 0 m 1
 16 711 l 1
 106 711 l 1
 397 0 l 1
 304 0 l 1
EndSplineSet
EndChar

StartChar: bar
Encoding: 92 124 142
Width: 374
VWidth: 0
Flags: MW
LayerCount: 2
UndoRedoHistory
Layer: 1
Undoes
EndUndoes
Redoes
EndRedoes
EndUndoRedoHistory
Fore
SplineSet
139 -231 m 1
 139 745 l 1
 235 745 l 1
 235 -231 l 1
 139 -231 l 1
EndSplineSet
EndChar

StartChar: braceleft
Encoding: 91 123 143
Width: 370
VWidth: 0
Flags: MW
LayerCount: 2
UndoRedoHistory
Layer: 1
Undoes
EndUndoes
Redoes
EndRedoes
EndUndoRedoHistory
Fore
SplineSet
336 -100 m 1
 207 -99 149 -42 149 57 c 2
 149 171 l 2
 149 238 125 276 64 279 c 1
 64 352 l 1
 118 354 149 388 149 449 c 2
 149 563 l 2
 149 658 195 729 336 729 c 1
 336 651 l 1
 276 650 251 616 251 548 c 2
 251 424 l 2
 251 365 211 329 166 313 c 1
 215 292 251 248 251 187 c 2
 251 66 l 2
 251 -8 289 -21 336 -21 c 1
 336 -100 l 1
EndSplineSet
EndChar

StartChar: braceright
Encoding: 93 125 144
Width: 376
VWidth: 0
Flags: MW
LayerCount: 2
UndoRedoHistory
Layer: 1
Undoes
EndUndoes
Redoes
EndRedoes
EndUndoRedoHistory
Fore
SplineSet
53 -100 m 1
 53 -21 l 1
 114 -21 138 15 138 82 c 2
 138 207 l 2
 138 266 179 301 223 317 c 1
 175 338 138 383 138 444 c 2
 138 564 l 2
 138 638 101 652 54 652 c 1
 54 729 l 1
 183 728 240 673 240 574 c 2
 240 459 l 2
 240 392 264 354 325 351 c 1
 325 279 l 1
 271 277 240 242 240 181 c 2
 240 67 l 2
 240 -28 194 -100 53 -100 c 1
EndSplineSet
EndChar

StartChar: bracketleft
Encoding: 59 91 145
Width: 315
VWidth: 0
Flags: MW
LayerCount: 2
UndoRedoHistory
Layer: 1
Undoes
EndUndoes
Redoes
EndRedoes
EndUndoRedoHistory
Fore
SplineSet
79 -99 m 1
 79 722 l 1
 281 722 l 1
 281 648 l 1
 178 648 l 1
 178 -23 l 1
 282 -23 l 1
 282 -99 l 1
 79 -99 l 1
EndSplineSet
EndChar

StartChar: bracketright
Encoding: 61 93 146
Width: 315
VWidth: 0
Flags: MW
LayerCount: 2
UndoRedoHistory
Layer: 1
Undoes
EndUndoes
Redoes
EndRedoes
EndUndoRedoHistory
Fore
SplineSet
54 -99 m 1
 54 -23 l 1
 156 -23 l 1
 156 648 l 1
 54 648 l 1
 54 722 l 1
 255 722 l 1
 255 -99 l 1
 54 -99 l 1
EndSplineSet
EndChar

StartChar: breve
Encoding: 365 728 147
Width: 313
VWidth: 0
Flags: MW
AnchorPoint: "top" 160 547 mark 0
LayerCount: 2
UndoRedoHistory
Layer: 1
Undoes
EndUndoes
Redoes
EndRedoes
EndUndoRedoHistory
Fore
SplineSet
158 579 m 0
 72 579 21 618 15 711 c 1
 86 711 l 1
 89 662 119 649 158 649 c 0
 196 649 224 663 229 711 c 1
 299 711 l 1
 293 619 243 579 158 579 c 0
EndSplineSet
EndChar

StartChar: brokenbar
Encoding: 101 166 148
Width: 244
VWidth: 0
Flags: MW
LayerCount: 2
UndoRedoHistory
Layer: 1
Undoes
EndUndoes
Redoes
EndRedoes
EndUndoRedoHistory
Fore
SplineSet
95 303 m 1
 95 745 l 1
 181 745 l 1
 181 303 l 1
 95 303 l 1
95 -231 m 1
 95 197 l 1
 182 197 l 1
 182 -231 l 1
 95 -231 l 1
EndSplineSet
EndChar

StartChar: bullet
Encoding: 409 8226 149
Width: 482
VWidth: 0
Flags: MW
LayerCount: 2
UndoRedoHistory
Layer: 1
Undoes
EndUndoes
Redoes
EndRedoes
EndUndoRedoHistory
Fore
SplineSet
246 182 m 0
 150 182 84 253 84 336 c 0
 84 421 155 493 246 493 c 0
 340 493 409 420 409 336 c 0
 409 251 338 182 246 182 c 0
EndSplineSet
EndChar

StartChar: c
Encoding: 67 99 150
Width: 511
VWidth: 0
Flags: MW
AnchorPoint: "bottom" 292 0 basechar 0
AnchorPoint: "top" 292 562 basechar 0
LayerCount: 2
UndoRedoHistory
Layer: 1
Undoes
EndUndoes
Redoes
EndRedoes
EndUndoRedoHistory
Fore
SplineSet
306 -11 m 0
 148 -11 50 101 50 248 c 0
 50 404 153 514 308 514 c 0
 378 514 436 493 476 452 c 1
 440 386 l 1
 410 412 367 432 315 432 c 0
 223 432 154 371 154 249 c 0
 154 141 215 71 314 71 c 0
 373 71 420 95 447 116 c 1
 478 43 l 1
 430 7 375 -11 306 -11 c 0
EndSplineSet
EndChar

StartChar: caron
Encoding: 363 711 152
Width: 341
VWidth: 0
Flags: MW
LayerCount: 2
UndoRedoHistory
Layer: 1
Undoes
EndUndoes
Redoes
EndRedoes
EndUndoRedoHistory
Fore
SplineSet
128 556 m 1
 3 738 l 1
 94 738 l 1
 170 624 l 1
 246 738 l 1
 338 738 l 1
 213 556 l 1
 128 556 l 1
EndSplineSet
EndChar

StartChar: cedilla
Encoding: 118 184 157
Width: 258
VWidth: 0
Flags: MW
AnchorPoint: "bottom" 111 -0 mark 0
LayerCount: 2
UndoRedoHistory
Layer: 1
Undoes
EndUndoes
Redoes
EndRedoes
EndUndoRedoHistory
Fore
SplineSet
17 -206 m 1
 23 -154 l 1
 36 -159 73 -167 101 -167 c 0
 132 -167 154 -152 154 -129 c 0
 154 -111 140 -83 78 -83 c 2
 65 -83 l 1
 81 12 l 1
 133 12 l 1
 124 -48 l 1
 198 -55 238 -89 238 -131 c 0
 238 -185 183 -218 105 -218 c 0
 76 -218 35 -212 17 -206 c 1
EndSplineSet
EndChar

StartChar: cent
Encoding: 97 162 158
Width: 509
VWidth: 0
Flags: MW
LayerCount: 2
UndoRedoHistory
Layer: 1
Undoes
EndUndoes
Redoes
EndRedoes
EndUndoRedoHistory
Fore
SplineSet
333 -10 m 1
 333 -108 l 1
 281 -108 l 1
 281 -10 l 1
 138 1 50 109 50 248 c 0
 50 395 141 501 281 513 c 1
 281 611 l 1
 333 611 l 1
 333 513 l 1
 392 509 441 488 476 452 c 1
 440 386 l 1
 414 409 377 427 333 431 c 1
 333 72 l 1
 383 76 423 97 447 116 c 1
 478 43 l 1
 436 12 390 -6 333 -10 c 1
281 74 m 1
 281 429 l 1
 207 415 154 355 154 249 c 0
 154 154 202 88 281 74 c 1
EndSplineSet
EndChar

StartChar: circumflex
Encoding: 362 710 159
Width: 341
VWidth: 0
Flags: MW
LayerCount: 2
UndoRedoHistory
Layer: 1
Undoes
EndUndoes
Redoes
EndRedoes
EndUndoRedoHistory
Fore
SplineSet
125 735 m 1
 216 735 l 1
 335 556 l 1
 248 556 l 1
 170 667 l 1
 92 556 l 1
 6 556 l 1
 125 735 l 1
EndSplineSet
EndChar

StartChar: colon
Encoding: 26 58 160
Width: 271
VWidth: 0
Flags: MW
LayerCount: 2
UndoRedoHistory
Layer: 1
Undoes
EndUndoes
Redoes
EndRedoes
EndUndoRedoHistory
Fore
SplineSet
86 403 m 1
 86 521 l 1
 200 521 l 1
 200 403 l 1
 86 403 l 1
86 0 m 1
 86 117 l 1
 200 117 l 1
 200 0 l 1
 86 0 l 1
EndSplineSet
EndChar

StartChar: comma
Encoding: 12 44 161
Width: 247
VWidth: 0
Flags: MW
LayerCount: 2
UndoRedoHistory
Layer: 1
Undoes
EndUndoes
Redoes
EndRedoes
EndUndoRedoHistory
Fore
SplineSet
32 -130 m 1
 85 116 l 1
 199 116 l 1
 115 -130 l 1
 32 -130 l 1
EndSplineSet
EndChar

StartChar: commaaccent
Encoding: 438 -1 162
Width: 263
VWidth: 0
Flags: MW
AnchorPoint: "bottom" 141 0 mark 0
LayerCount: 2
UndoRedoHistory
Layer: 1
Undoes
EndUndoes
Redoes
EndRedoes
EndUndoRedoHistory
Fore
SplineSet
48 -303 m 1
 102 -66 l 1
 215 -66 l 1
 131 -303 l 1
 48 -303 l 1
EndSplineSet
EndChar

StartChar: copyright
Encoding: 104 169 163
Width: 841
VWidth: 0
Flags: MW
LayerCount: 2
UndoRedoHistory
Layer: 1
Undoes
EndUndoes
Redoes
EndRedoes
EndUndoRedoHistory
Fore
SplineSet
421 40 m 0
 592 40 729 183 729 354 c 0
 729 526 592 673 421 673 c 0
 249 673 112 526 112 354 c 0
 112 183 249 40 421 40 c 0
420 722 m 0
 623 722 790 559 790 356 c 0
 790 153 623 -11 420 -11 c 0
 217 -11 52 153 52 356 c 0
 52 559 217 722 420 722 c 0
218 351 m 0
 218 481 303 571 432 571 c 0
 490 571 538 553 571 520 c 1
 542 465 l 1
 517 486 480 504 438 504 c 0
 362 504 304 453 304 352 c 0
 304 258 364 209 438 209 c 0
 482 209 519 227 547 249 c 1
 573 190 l 1
 530 157 482 142 431 142 c 0
 311 142 218 230 218 351 c 0
EndSplineSet
EndChar

StartChar: currency
Encoding: 99 164 164
Width: 594
VWidth: 0
Flags: MW
LayerCount: 2
UndoRedoHistory
Layer: 1
Undoes
EndUndoes
Redoes
EndRedoes
EndUndoRedoHistory
Fore
SplineSet
298 348 m 0
 383 348 446 416 446 501 c 0
 446 586 383 651 298 651 c 0
 213 651 150 586 150 501 c 0
 150 416 213 348 298 348 c 0
512 266 m 1
 420 356 l 1
 387 329 345 312 298 312 c 0
 251 312 207 329 174 357 c 1
 82 266 l 1
 58 291 l 1
 150 382 l 1
 123 414 106 456 106 501 c 0
 106 548 123 591 152 624 c 1
 58 719 l 1
 82 744 l 1
 178 648 l 1
 210 673 253 688 298 688 c 0
 343 688 383 673 416 648 c 1
 512 744 l 1
 536 719 l 1
 442 625 l 1
 471 592 489 549 489 501 c 0
 489 456 473 414 446 381 c 1
 536 291 l 1
 512 266 l 1
EndSplineSet
EndChar

StartChar: d
Encoding: 68 100 165
Width: 617
VWidth: 0
Flags: MW
AnchorPoint: "bottom" 403 0 basechar 0
AnchorPoint: "top" 265 590 basechar 0
LayerCount: 2
UndoRedoHistory
Layer: 1
Undoes
EndUndoes
Redoes
EndRedoes
EndUndoRedoHistory
Fore
SplineSet
296 71 m 0
 392 71 439 146 439 255 c 0
 439 356 390 432 298 432 c 0
 205 432 154 356 154 250 c 0
 154 147 202 71 296 71 c 0
280 -11 m 0
 149 -11 50 89 50 248 c 0
 50 400 136 514 286 514 c 0
 366 514 419 471 437 435 c 1
 437 722 l 1
 538 722 l 1
 538 130 l 2
 538 105 539 77 541 0 c 1
 439 0 l 1
 438 77 l 1
 422 37 371 -11 280 -11 c 0
EndSplineSet
EndChar

StartChar: dagger
Encoding: 407 8224 166
Width: 499
VWidth: 0
Flags: MW
LayerCount: 2
UndoRedoHistory
Layer: 1
Undoes
EndUndoes
Redoes
EndRedoes
EndUndoRedoHistory
Fore
SplineSet
216 0 m 1
 216 431 l 1
 57 431 l 1
 57 501 l 1
 216 501 l 1
 216 711 l 1
 299 711 l 1
 299 501 l 1
 463 501 l 1
 463 431 l 1
 296 431 l 1
 296 0 l 1
 216 0 l 1
EndSplineSet
EndChar

StartChar: daggerdbl
Encoding: 408 8225 167
Width: 543
VWidth: 0
Flags: MW
LayerCount: 2
UndoRedoHistory
Layer: 1
Undoes
EndUndoes
Redoes
EndRedoes
EndUndoRedoHistory
Fore
SplineSet
230 0 m 1
 230 194 l 1
 64 194 l 1
 64 252 l 1
 230 252 l 1
 230 440 l 1
 66 440 l 1
 66 501 l 1
 230 501 l 1
 230 711 l 1
 317 711 l 1
 317 501 l 1
 480 501 l 1
 480 440 l 1
 317 440 l 1
 317 252 l 1
 477 252 l 1
 477 194 l 1
 317 194 l 1
 317 0 l 1
 230 0 l 1
EndSplineSet
EndChar

StartChar: dcroat
Encoding: 207 273 169
Width: 612
VWidth: 0
Flags: MW
LayerCount: 2
UndoRedoHistory
Layer: 1
Undoes
EndUndoes
Redoes
EndRedoes
EndUndoRedoHistory
Fore
SplineSet
289 596 m 1
 289 657 l 1
 437 657 l 1
 437 722 l 1
 538 722 l 1
 538 657 l 1
 589 657 l 1
 589 596 l 1
 538 596 l 1
 538 130 l 2
 538 105 539 77 541 0 c 1
 439 0 l 1
 438 77 l 1
 422 37 371 -11 280 -11 c 0
 149 -11 50 89 50 248 c 0
 50 400 136 514 286 514 c 0
 366 514 419 471 437 435 c 1
 437 596 l 1
 289 596 l 1
296 71 m 0
 392 71 439 146 439 255 c 0
 439 356 390 432 298 432 c 0
 205 432 154 356 154 250 c 0
 154 147 202 71 296 71 c 0
EndSplineSet
EndChar

StartChar: degree
Encoding: 111 176 170
Width: 421
VWidth: 0
Flags: MW
LayerCount: 2
UndoRedoHistory
Layer: 1
Undoes
EndUndoes
Redoes
EndRedoes
EndUndoRedoHistory
Fore
SplineSet
211 482 m 0
 263 482 297 521 297 570 c 0
 297 618 263 657 211 657 c 0
 160 657 125 618 125 570 c 0
 125 521 159 482 211 482 c 0
211 711 m 0
 295 711 361 651 361 569 c 0
 361 487 295 427 211 427 c 0
 128 427 61 487 61 569 c 0
 61 651 128 711 211 711 c 0
EndSplineSet
EndChar

StartChar: dieresis
Encoding: 103 168 171
Width: 362
VWidth: 0
Flags: MW
AnchorPoint: "top" 175 523 mark 0
LayerCount: 2
UndoRedoHistory
Layer: 1
Undoes
EndUndoes
Redoes
EndRedoes
EndUndoRedoHistory
Fore
SplineSet
233 574 m 1
 233 676 l 1
 334 676 l 1
 334 574 l 1
 233 574 l 1
28 574 m 1
 28 676 l 1
 130 676 l 1
 130 574 l 1
 28 574 l 1
EndSplineSet
EndChar

StartChar: divide
Encoding: 181 247 172
Width: 662
VWidth: 0
Flags: MW
LayerCount: 2
UndoRedoHistory
Layer: 1
Undoes
EndUndoes
Redoes
EndRedoes
EndUndoRedoHistory
Fore
SplineSet
264 418 m 1
 264 536 l 1
 389 536 l 1
 389 418 l 1
 264 418 l 1
80 228 m 1
 80 312 l 1
 571 312 l 1
 571 228 l 1
 80 228 l 1
265 0 m 1
 265 118 l 1
 390 118 l 1
 390 0 l 1
 265 0 l 1
EndSplineSet
EndChar

StartChar: dollar
Encoding: 4 36 173
Width: 590
VWidth: 0
Flags: MW
LayerCount: 2
UndoRedoHistory
Layer: 1
Undoes
EndUndoes
Redoes
EndRedoes
EndUndoRedoHistory
Fore
SplineSet
333 -10 m 1
 333 -100 l 1
 281 -100 l 1
 281 -11 l 1
 175 -6 91 40 62 69 c 1
 107 145 l 1
 138 121 209 82 281 77 c 1
 281 322 l 1
 277 323 272 325 268 326 c 0
 135 366 66 415 66 534 c 0
 66 652 160 715 281 722 c 1
 281 796 l 1
 333 796 l 1
 333 722 l 1
 445 717 499 679 532 647 c 1
 480 577 l 1
 449 606 395 633 333 636 c 1
 333 409 l 1
 497 358 545 304 545 188 c 0
 545 62 449 0 333 -10 c 1
281 425 m 1
 281 633 l 1
 220 624 177 595 177 538 c 0
 177 478 194 455 281 425 c 1
333 305 m 1
 333 80 l 1
 401 90 436 127 436 188 c 0
 436 244 420 273 333 305 c 1
EndSplineSet
EndChar

StartChar: dotaccent
Encoding: 366 729 174
Width: 255
VWidth: 0
Flags: MW
AnchorPoint: "top" 125 555 mark 0
LayerCount: 2
UndoRedoHistory
Layer: 1
Undoes
EndUndoes
Redoes
EndRedoes
EndUndoRedoHistory
Fore
SplineSet
82 622 m 1
 82 711 l 1
 174 711 l 1
 174 622 l 1
 82 622 l 1
EndSplineSet
EndChar

StartChar: dotlessi
Encoding: 239 305 175
Width: 267
VWidth: 0
Flags: MW
AnchorPoint: "top" 126 545 basechar 0
LayerCount: 2
UndoRedoHistory
Layer: 1
Undoes
EndUndoes
Redoes
EndRedoes
EndUndoRedoHistory
Fore
SplineSet
85 0 m 1
 85 501 l 1
 186 501 l 1
 186 0 l 1
 85 0 l 1
EndSplineSet
EndChar

StartChar: e
Encoding: 69 101 176
Width: 570
VWidth: 0
Flags: MW
AnchorPoint: "ogonek" 422 27 basechar 0
AnchorPoint: "bottom" 318 0 basechar 0
AnchorPoint: "top" 294 562 basechar 0
LayerCount: 2
UndoRedoHistory
Layer: 1
Undoes
EndUndoes
Redoes
EndRedoes
EndUndoRedoHistory
Fore
SplineSet
156 304 m 1
 428 304 l 1
 419 390 369 435 301 435 c 0
 225 435 170 387 156 304 c 1
312 -11 m 0
 150 -11 50 94 50 250 c 0
 50 400 146 514 297 514 c 0
 444 514 516 404 516 258 c 0
 516 255 515 247 514 235 c 1
 154 235 l 1
 157 125 225 71 318 71 c 0
 376 71 428 88 475 126 c 1
 504 52 l 1
 450 10 386 -11 312 -11 c 0
EndSplineSet
EndChar

StartChar: eight
Encoding: 24 56 184
Width: 607
VWidth: 0
Flags: MW
LayerCount: 2
UndoRedoHistory
Layer: 1
Undoes
EndUndoes
Redoes
EndRedoes
EndUndoRedoHistory
Fore
SplineSet
306 414 m 1
 381 432 427 479 427 544 c 0
 427 607 370 643 306 643 c 0
 240 643 185 609 185 542 c 0
 185 479 231 431 306 414 c 1
306 71 m 0
 385 71 442 109 442 188 c 0
 442 256 384 314 308 331 c 1
 231 314 172 261 172 188 c 0
 172 113 227 71 306 71 c 0
307 -11 m 0
 177 -11 69 61 69 188 c 0
 69 273 124 340 209 373 c 1
 137 405 85 460 85 540 c 0
 85 656 181 722 306 722 c 0
 436 722 528 655 528 538 c 0
 528 458 478 401 405 372 c 1
 487 340 543 270 543 186 c 0
 543 59 431 -11 307 -11 c 0
EndSplineSet
EndChar

StartChar: ellipsis
Encoding: 410 8230 185
Width: 791
VWidth: 0
Flags: MW
LayerCount: 2
UndoRedoHistory
Layer: 1
Undoes
EndUndoes
Redoes
EndRedoes
EndUndoRedoHistory
Fore
SplineSet
585 -5 m 1
 585 112 l 1
 711 112 l 1
 711 -5 l 1
 585 -5 l 1
326 -5 m 1
 326 112 l 1
 452 112 l 1
 453 -5 l 1
 326 -5 l 1
67 -5 m 1
 67 112 l 1
 193 112 l 1
 193 -5 l 1
 67 -5 l 1
EndSplineSet
EndChar

StartChar: emdash
Encoding: 399 8212 187
Width: 1083
VWidth: 0
Flags: MW
LayerCount: 2
UndoRedoHistory
Layer: 1
Undoes
EndUndoes
Redoes
EndRedoes
EndUndoRedoHistory
Fore
SplineSet
42 233 m 1
 42 310 l 1
 1042 310 l 1
 1042 233 l 1
 42 233 l 1
EndSplineSet
EndChar

StartChar: endash
Encoding: 398 8211 188
Width: 583
VWidth: 0
Flags: MW
LayerCount: 2
UndoRedoHistory
Layer: 1
Undoes
EndUndoes
Redoes
EndRedoes
EndUndoRedoHistory
Fore
SplineSet
42 233 m 1
 42 310 l 1
 542 310 l 1
 542 233 l 1
 42 233 l 1
EndSplineSet
EndChar

StartChar: eng
Encoding: 265 331 189
Width: 595
VWidth: 0
Flags: MW
LayerCount: 2
UndoRedoHistory
Layer: 1
Undoes
EndUndoes
Redoes
EndRedoes
EndUndoRedoHistory
Fore
SplineSet
139 -107 m 1
 193 -120 238 -127 276 -127 c 0
 380 -127 424 -75 424 41 c 2
 424 276 l 2
 424 378 407 432 322 432 c 0
 251 432 183 369 183 310 c 2
 183 0 l 1
 83 0 l 1
 83 346 l 2
 83 435 76 501 76 501 c 1
 182 501 l 1
 182 430 l 1
 216 486 280 513 342 513 c 0
 470 513 525 436 525 277 c 2
 525 61 l 2
 525 -107 454 -201 288 -201 c 0
 242 -201 189 -195 128 -180 c 1
 139 -107 l 1
EndSplineSet
EndChar

StartChar: equal
Encoding: 29 61 191
Width: 660
VWidth: 0
Flags: MW
LayerCount: 2
UndoRedoHistory
Layer: 1
Undoes
EndUndoes
Redoes
EndRedoes
EndUndoRedoHistory
Fore
SplineSet
90 331 m 1
 90 414 l 1
 568 414 l 1
 568 331 l 1
 90 331 l 1
90 138 m 1
 90 220 l 1
 570 220 l 1
 570 138 l 1
 90 138 l 1
EndSplineSet
EndChar

StartChar: eth
Encoding: 174 240 192
Width: 595
VWidth: 0
Flags: MW
LayerCount: 2
UndoRedoHistory
Layer: 1
Undoes
EndUndoes
Redoes
EndRedoes
EndUndoRedoHistory
Fore
SplineSet
217 511 m 1
 183 564 l 1
 280 625 l 1
 235 656 184 679 129 691 c 1
 167 758 l 1
 229 745 295 715 354 670 c 1
 466 740 l 1
 500 686 l 1
 404 627 l 1
 483 549 540 440 540 307 c 0
 540 101 448 -11 289 -11 c 0
 143 -11 50 96 50 225 c 0
 50 354 152 443 288 443 c 0
 363 443 421 402 442 361 c 1
 442 365 440 374 439 380 c 0
 435 450 394 523 332 582 c 1
 217 511 l 1
291 77 m 0
 375 77 430 140 430 231 c 0
 430 310 359 360 290 360 c 0
 213 360 155 310 155 223 c 0
 155 132 216 77 291 77 c 0
EndSplineSet
EndChar

StartChar: exclam
Encoding: 1 33 193
Width: 301
VWidth: 0
Flags: MW
LayerCount: 2
UndoRedoHistory
Layer: 1
Undoes
EndUndoes
Redoes
EndRedoes
EndUndoRedoHistory
Fore
SplineSet
128 186 m 1
 98 711 l 1
 217 711 l 1
 187 186 l 1
 128 186 l 1
111 0 m 1
 111 115 l 1
 206 115 l 1
 206 0 l 1
 111 0 l 1
EndSplineSet
EndChar

StartChar: f
Encoding: 70 102 195
Width: 369
VWidth: 0
Flags: MW
AnchorPoint: "bottom" 179 0 basechar 0
AnchorPoint: "top" 265 715 basechar 0
LayerCount: 2
UndoRedoHistory
Layer: 1
Undoes
EndUndoes
Redoes
EndRedoes
EndUndoRedoHistory
Fore
SplineSet
124 0 m 1
 124 434 l 1
 34 434 l 1
 34 501 l 1
 124 501 l 1
 124 533 l 2
 124 665 144 722 323 722 c 2
 347 722 l 1
 345 646 l 1
 234 646 225 627 225 539 c 2
 225 501 l 1
 342 501 l 1
 342 434 l 1
 225 434 l 1
 225 0 l 1
 124 0 l 1
EndSplineSet
EndChar

StartChar: five
Encoding: 21 53 196
Width: 607
VWidth: 0
Flags: MW
LayerCount: 2
UndoRedoHistory
Layer: 1
Undoes
EndUndoes
Redoes
EndRedoes
EndUndoRedoHistory
Fore
SplineSet
300 -11 m 0
 221 -11 140 15 80 77 c 1
 131 154 l 1
 179 99 241 78 298 78 c 0
 386 78 440 139 440 231 c 0
 440 306 399 373 322 373 c 0
 283 373 239 359 220 331 c 1
 121 339 l 1
 121 711 l 1
 508 711 l 1
 508 622 l 1
 215 622 l 1
 209 418 l 1
 238 451 287 465 335 465 c 0
 460 465 547 362 547 229 c 0
 547 82 442 -11 300 -11 c 0
EndSplineSet
EndChar

StartChar: florin
Encoding: 318 402 197
Width: 529
VWidth: 0
Flags: MW
LayerCount: 2
UndoRedoHistory
Layer: 1
Undoes
EndUndoes
Redoes
EndRedoes
EndUndoRedoHistory
Fore
SplineSet
36 -140 m 1
 43 -75 l 1
 55 -78 66 -80 78 -80 c 0
 115 -80 149 -58 164 25 c 2
 226 371 l 1
 154 371 l 1
 167 435 l 1
 238 435 l 1
 259 547 l 2
 273 624 303 714 426 714 c 0
 476 714 509 696 509 696 c 1
 500 633 l 1
 478 639 459 643 442 643 c 0
 398 643 369 619 356 555 c 2
 332 435 l 1
 433 435 l 1
 421 371 l 1
 320 371 l 1
 259 36 l 2
 237 -90 199 -148 88 -148 c 0
 81 -148 58 -146 36 -140 c 1
EndSplineSet
EndChar

StartChar: four
Encoding: 20 52 198
Width: 607
VWidth: 0
Flags: MW
LayerCount: 2
UndoRedoHistory
Layer: 1
Undoes
EndUndoes
Redoes
EndRedoes
EndUndoRedoHistory
Fore
SplineSet
159 262 m 1
 365 262 l 1
 365 607 l 1
 298.612421947 489.720911386 228.034385762 376.632280905 159 262 c 1
365 0 m 1
 365 188 l 1
 52 188 l 1
 52 255 l 1
 343 711 l 1
 464 711 l 1
 464 262 l 1
 572 262 l 1
 572 188 l 1
 464 188 l 1
 464 0 l 1
 365 0 l 1
EndSplineSet
EndChar

StartChar: fraction
Encoding: 414 8260 199
Width: 533
VWidth: 0
Flags: MW
LayerCount: 2
UndoRedoHistory
Layer: 1
Undoes
EndUndoes
Redoes
EndRedoes
EndUndoRedoHistory
Fore
SplineSet
15 0 m 1
 452 711 l 1
 548 711 l 1
 112 0 l 1
 15 0 l 1
EndSplineSet
EndChar

StartChar: g
Encoding: 71 103 200
Width: 608
VWidth: 0
Flags: MW
AnchorPoint: "bottom" 287 -250 basechar 0
AnchorPoint: "top" 283 549 basechar 0
LayerCount: 2
UndoRedoHistory
Layer: 1
Undoes
EndUndoes
Redoes
EndRedoes
EndUndoRedoHistory
Fore
SplineSet
294 88 m 0
 395 88 439 161 439 262 c 0
 439 363 390 432 300 432 c 0
 207 432 155 357 155 253 c 0
 155 148 203 88 294 88 c 0
437 434 m 1
 438 501 l 1
 542 501 l 1
 542 501 536 422 536 355 c 2
 536 72 l 2
 536 -75 469 -201 281 -201 c 0
 213 -201 153 -187 92 -156 c 1
 108 -69 l 1
 167 -105 218 -121 277 -121 c 0
 378 -121 437 -68 437 38 c 2
 437 88 l 1
 414 52 369 10 288 10 c 0
 152 10 50 101 50 252 c 0
 50 402 131 514 285 514 c 0
 365 514 412 475 437 434 c 1
EndSplineSet
EndChar

StartChar: gcedilla
Encoding: 225 291 202
Width: 605
VWidth: 0
Flags: MW
LayerCount: 2
UndoRedoHistory
Layer: 1
Undoes
EndUndoes
Redoes
EndRedoes
EndUndoRedoHistory
Fore
SplineSet
234 567 m 1
 314 793 l 1
 378 793 l 1
 326 567 l 1
 234 567 l 1
EndSplineSet
Refer: 200 103 N 1 0 0 1 0 0 2
EndChar

StartChar: germandbls
Encoding: 157 223 205
Width: 612
VWidth: 0
Flags: MW
LayerCount: 2
UndoRedoHistory
Layer: 1
Undoes
EndUndoes
Redoes
EndRedoes
EndUndoRedoHistory
Fore
SplineSet
397 -11 m 0
 308 -11 237 18 237 18 c 1
 254 97 l 1
 254 97 316.803612686 69.4696492334 375.380418801 69.4696492334 c 0
 379.956731779 69.4696492334 384.507246377 69.6376811594 389 70 c 0
 433 74 471 104 471 162 c 0
 471 249 398 303 274 360 c 1
 274 435 l 1
 355 469 394 509 394 569 c 0
 394 619 355 650 295 650 c 0
 217 650 177 589 177 498 c 2
 177 0 l 1
 78 0 l 1
 77 497 l 2
 77 649 161 730 295 730 c 0
 420 730 499 667 499 573 c 0
 499 503 462 453 389 417 c 0
 380 412 363 404 353 401 c 1
 363 399 380 392 390 389 c 0
 487 351 578 286 578 169 c 0
 578 58 494 -11 397 -11 c 0
EndSplineSet
EndChar

StartChar: grave
Encoding: 64 96 206
Width: 292
VWidth: 0
Flags: MW
LayerCount: 2
UndoRedoHistory
Layer: 1
Undoes
EndUndoes
Redoes
EndRedoes
EndUndoRedoHistory
Fore
SplineSet
179 573 m 1
 13 758 l 1
 143 758 l 1
 266 573 l 1
 179 573 l 1
EndSplineSet
EndChar

StartChar: greater
Encoding: 30 62 207
Width: 639
VWidth: 0
Flags: MW
LayerCount: 2
UndoRedoHistory
Layer: 1
Undoes
EndUndoes
Redoes
EndRedoes
EndUndoRedoHistory
Fore
SplineSet
105 29 m 1
 105 123 l 1
 450 276 l 1
 107 440 l 1
 107 533 l 1
 582 297 l 1
 582 246 l 1
 105 29 l 1
EndSplineSet
EndChar

StartChar: greaterequal
Encoding: 431 8805 208
Width: 659
VWidth: 0
Flags: MW
LayerCount: 2
UndoRedoHistory
Layer: 1
Undoes
EndUndoes
Redoes
EndRedoes
EndUndoRedoHistory
Fore
SplineSet
83 615 m 1
 558 386 l 1
 558 336 l 1
 82 112 l 1
 82 205 l 1
 429 361 l 1
 83 523 l 1
 83 615 l 1
77 0 m 1
 77 70 l 1
 568 70 l 1
 568 0 l 1
 77 0 l 1
EndSplineSet
EndChar

StartChar: guillemotleft
Encoding: 106 171 209
Width: 555
VWidth: 0
Flags: MW
LayerCount: 2
UndoRedoHistory
Layer: 1
Undoes
EndUndoes
Redoes
EndRedoes
EndUndoRedoHistory
Fore
SplineSet
412 81 m 1
 278 265 l 1
 415 449 l 1
 500 449 l 1
 380 265 l 1
 496 81 l 1
 412 81 l 1
200 81 m 1
 67 265 l 1
 203 449 l 1
 288 449 l 1
 169 265 l 1
 284 81 l 1
 200 81 l 1
EndSplineSet
EndChar

StartChar: guillemotright
Encoding: 121 187 210
Width: 555
VWidth: 0
Flags: MW
LayerCount: 2
UndoRedoHistory
Layer: 1
Undoes
EndUndoes
Redoes
EndRedoes
EndUndoRedoHistory
Fore
SplineSet
157 448 m 1
 290 265 l 1
 154 81 l 1
 68 81 l 1
 188 265 l 1
 72 448 l 1
 157 448 l 1
368 448 m 1
 501 265 l 1
 365 81 l 1
 280 81 l 1
 399 265 l 1
 284 448 l 1
 368 448 l 1
EndSplineSet
EndChar

StartChar: guilsinglleft
Encoding: 412 8249 211
Width: 340
VWidth: 0
Flags: MW
LayerCount: 2
UndoRedoHistory
Layer: 1
Undoes
EndUndoes
Redoes
EndRedoes
EndUndoRedoHistory
Fore
SplineSet
201 81 m 1
 67 264 l 1
 204 448 l 1
 289 448 l 1
 169 264 l 1
 285 81 l 1
 201 81 l 1
EndSplineSet
EndChar

StartChar: guilsinglright
Encoding: 413 8250 212
Width: 340
VWidth: 0
Flags: MW
LayerCount: 2
UndoRedoHistory
Layer: 1
Undoes
EndUndoes
Redoes
EndRedoes
EndUndoRedoHistory
Fore
SplineSet
155 448 m 1
 288 264 l 1
 152 80 l 1
 67 80 l 1
 186 265 l 1
 71 448 l 1
 155 448 l 1
EndSplineSet
EndChar

StartChar: h
Encoding: 72 104 213
Width: 601
VWidth: 0
Flags: MW
AnchorPoint: "bottom" 315 0 basechar 0
AnchorPoint: "top" 360 615 basechar 0
LayerCount: 2
UndoRedoHistory
Layer: 1
Undoes
EndUndoes
Redoes
EndRedoes
EndUndoRedoHistory
Fore
SplineSet
77 0 m 1
 77 722 l 1
 178 722 l 1
 178 427 l 1
 207 480 277 514 341 514 c 0
 482 514 528 402 528 294 c 2
 528 0 l 1
 428 0 l 1
 428 294 l 2
 428 392 396 432 326 432 c 0
 250 432 178 371 178 303 c 2
 178 0 l 1
 77 0 l 1
EndSplineSet
EndChar

StartChar: hbar
Encoding: 229 295 214
Width: 584
VWidth: 0
Flags: MW
LayerCount: 2
UndoRedoHistory
Layer: 1
Undoes
EndUndoes
Redoes
EndRedoes
EndUndoRedoHistory
Fore
SplineSet
-8 581 m 1
 -8 646 l 1
 284 646 l 1
 284 581 l 1
 -8 581 l 1
EndSplineSet
Refer: 213 104 N 1 0 0 1 0 0 2
EndChar

StartChar: hungarumlaut
Encoding: 370 733 216
Width: 473
VWidth: 0
Flags: MW
AnchorPoint: "top" 164 532 mark 0
LayerCount: 2
UndoRedoHistory
Layer: 1
Undoes
EndUndoes
Redoes
EndRedoes
EndUndoRedoHistory
Fore
SplineSet
198 565 m 1
 321 757 l 1
 435 757 l 1
 272 565 l 1
 198 565 l 1
32 565 m 1
 138 757 l 1
 247 757 l 1
 104 565 l 1
 32 565 l 1
EndSplineSet
EndChar

StartChar: hyphen
Encoding: 13 45 217
Width: 341
VWidth: 0
Flags: MW
LayerCount: 2
UndoRedoHistory
Layer: 1
Undoes
EndUndoes
Redoes
EndRedoes
EndUndoRedoHistory
Fore
SplineSet
29 233 m 1
 29 312 l 1
 312 312 l 1
 312 233 l 1
 29 233 l 1
EndSplineSet
EndChar

StartChar: i
Encoding: 73 105 218
Width: 271
VWidth: 0
Flags: MW
AnchorPoint: "bottom" 121 0 basechar 0
LayerCount: 2
UndoRedoHistory
Layer: 1
Undoes
EndUndoes
Redoes
EndRedoes
EndUndoRedoHistory
Fore
SplineSet
90 620 m 1
 90 711 l 1
 188 711 l 1
 188 620 l 1
 90 620 l 1
89 0 m 1
 89 501 l 1
 188 501 l 1
 188 0 l 1
 89 0 l 1
EndSplineSet
EndChar

StartChar: infinity
Encoding: 426 8734 226
Width: 845
VWidth: 0
Flags: MW
LayerCount: 2
UndoRedoHistory
Layer: 1
Undoes
EndUndoes
Redoes
EndRedoes
EndUndoRedoHistory
Fore
SplineSet
621 181 m 0
 693 181 723 235 723 304 c 0
 723 357 681 402 618 402 c 0
 555 402 500 349 460 292 c 1
 517 220 562 181 621 181 c 0
231 181 m 0
 293 181 345 229 389 290 c 1
 345 353 293 402 226 402 c 0
 157 402 120 352 120 292 c 0
 120 235 162 181 231 181 c 0
226 114 m 0
 120 114 47 200 47 302 c 0
 47 394 131 468 224 468 c 0
 304 468 367 420 424 344 c 1
 478 418 538 468 621 468 c 0
 729 468 798 395 798 293 c 0
 798 187 715 114 620 114 c 0
 547 114 488 154 423 238 c 1
 367 165 305 114 226 114 c 0
EndSplineSet
EndChar

StartChar: integral
Encoding: 427 8747 227
Width: 377
VWidth: 0
Flags: MW
LayerCount: 2
UndoRedoHistory
Layer: 1
Undoes
EndUndoes
Redoes
EndRedoes
EndUndoRedoHistory
Fore
SplineSet
88 -152 m 0
 41 -152 12 -141 12 -141 c 1
 12 -63 l 1
 12 -63 56 -71 84 -71 c 0
 138 -71 148 -38 148 23 c 2
 148 576 l 2
 148 682 177 761 288 761 c 0
 332 761 363 750 363 750 c 1
 363 671 l 1
 363 671 332 680 304 680 c 0
 249 680 239 647 239 586 c 2
 239 34 l 2
 239 -73 200 -152 88 -152 c 0
EndSplineSet
EndChar

StartChar: j
Encoding: 74 106 230
Width: 280
VWidth: 0
Flags: MW
LayerCount: 2
UndoRedoHistory
Layer: 1
Undoes
EndUndoes
Redoes
EndRedoes
EndUndoRedoHistory
Fore
SplineSet
103 620 m 1
 103 711 l 1
 203 711 l 1
 203 620 l 1
 103 620 l 1
42 -191 m 0
 3 -191 -31 -182 -41 -180 c 1
 -32 -107 l 1
 -32 -107 -2 -116 30 -116 c 0
 84 -116 103 -89 103 6 c 2
 103 501 l 1
 203 501 l 1
 203 0 l 2
 203 -128 166 -191 42 -191 c 0
EndSplineSet
EndChar

StartChar: k
Encoding: 75 107 232
Width: 527
VWidth: 0
Flags: MW
AnchorPoint: "bottom" 301 -0 basechar 0
AnchorPoint: "top" 375 562 basechar 0
LayerCount: 2
UndoRedoHistory
Layer: 1
Undoes
EndUndoes
Redoes
EndRedoes
EndUndoRedoHistory
Fore
SplineSet
78 0 m 1
 78 722 l 1
 179 722 l 1
 179 292 l 1
 383 501 l 1
 521 501 l 1
 272 262 l 1
 539 0 l 1
 405 0 l 1
 179 231 l 1
 179 0 l 1
 78 0 l 1
EndSplineSet
EndChar

StartChar: kgreenlandic
Encoding: 246 312 234
Width: 528
VWidth: 0
Flags: MW
LayerCount: 2
UndoRedoHistory
Layer: 1
Undoes
EndUndoes
Redoes
EndRedoes
EndUndoRedoHistory
Fore
SplineSet
79 0 m 1
 79 501 l 1
 179 501 l 1
 179 284 l 1
 380 501 l 1
 512 501 l 1
 263 253 l 1
 529 0 l 1
 401 0 l 1
 179 215 l 1
 179 0 l 1
 79 0 l 1
EndSplineSet
EndChar

StartChar: l
Encoding: 76 108 235
Width: 259
VWidth: 0
Flags: MW
AnchorPoint: "bottom" 129 0 basechar 0
AnchorPoint: "top" 130 720 basechar 0
LayerCount: 2
UndoRedoHistory
Layer: 1
Undoes
EndUndoes
Redoes
EndRedoes
EndUndoRedoHistory
Fore
SplineSet
82 0 m 1
 82 722 l 1
 183 722 l 1
 183 0 l 1
 82 0 l 1
EndSplineSet
EndChar

StartChar: less
Encoding: 28 60 239
Width: 638
VWidth: 0
Flags: MW
LayerCount: 2
UndoRedoHistory
Layer: 1
Undoes
EndUndoes
Redoes
EndRedoes
EndUndoRedoHistory
Fore
SplineSet
533 28 m 1
 59 257 l 1
 59 307 l 1
 535 530 l 1
 535 438 l 1
 188 281 l 1
 533 120 l 1
 533 28 l 1
EndSplineSet
EndChar

StartChar: lessequal
Encoding: 430 8804 240
Width: 659
VWidth: 0
Flags: MW
LayerCount: 2
UndoRedoHistory
Layer: 1
Undoes
EndUndoes
Redoes
EndRedoes
EndUndoRedoHistory
Fore
SplineSet
71 0 m 1
 71 70 l 1
 562 70 l 1
 562 0 l 1
 71 0 l 1
553 112 m 1
 79 341 l 1
 79 391 l 1
 555 615 l 1
 555 522 l 1
 208 365 l 1
 553 204 l 1
 553 112 l 1
EndSplineSet
EndChar

StartChar: logicalnot
Encoding: 107 172 241
Width: 713
VWidth: 0
Flags: MW
LayerCount: 2
UndoRedoHistory
Layer: 1
Undoes
EndUndoes
Redoes
EndRedoes
EndUndoRedoHistory
Fore
SplineSet
513 112 m 1
 513 310 l 1
 90 310 l 1
 90 394 l 1
 606 394 l 1
 606 112 l 1
 513 112 l 1
EndSplineSet
EndChar

StartChar: lozenge
Encoding: 432 9674 243
Width: 609
VWidth: 0
Flags: MW
LayerCount: 2
UndoRedoHistory
Layer: 1
Undoes
EndUndoes
Redoes
EndRedoes
EndUndoRedoHistory
Fore
SplineSet
262 -20 m 1
 45 345 l 1
 266 711 l 1
 331 711 l 1
 550 346 l 1
 327 -20 l 1
 262 -20 l 1
295 80 m 1
 453 345 l 1
 299 606 l 1
 141 345 l 1
 295 80 l 1
EndSplineSet
EndChar

StartChar: lslash
Encoding: 256 322 244
Width: 245
VWidth: 0
Flags: MW
LayerCount: 2
UndoRedoHistory
Layer: 1
Undoes
EndUndoes
Redoes
EndRedoes
EndUndoRedoHistory
Fore
SplineSet
70 0 m 1
 70 345 l 1
 1 296 l 1
 1 383 l 1
 70 432 l 1
 70 722 l 1
 170 722 l 1
 170 501 l 1
 237 549 l 1
 237 462 l 1
 171 413 l 1
 171 0 l 1
 70 0 l 1
EndSplineSet
EndChar

StartChar: m
Encoding: 77 109 245
Width: 910
VWidth: 0
Flags: MW
AnchorPoint: "bottom" 462 0 basechar 0
AnchorPoint: "top" 465 500 basechar 0
LayerCount: 2
UndoRedoHistory
Layer: 1
Undoes
EndUndoes
Redoes
EndRedoes
EndUndoRedoHistory
Fore
SplineSet
83 0 m 1
 83 355 l 2
 83 419 79 465 77 501 c 1
 183 501 l 1
 183 425 l 1
 209 481 273 514 336 514 c 0
 402 514 460 476 486 410 c 1
 523 472 583 514 662 514 c 0
 779 514 837 434 837 308 c 2
 837 0 l 1
 736 0 l 1
 736 298 l 2
 736 376 714 432 652 432 c 0
 578 432 512 364 512 285 c 2
 512 0 l 1
 411 0 l 1
 411 308 l 2
 411 372 389 432 319 432 c 0
 242 432 184 367 184 299 c 2
 184 0 l 1
 83 0 l 1
EndSplineSet
EndChar

StartChar: macron
Encoding: 110 175 246
Width: 357
VWidth: 0
Flags: MW
AnchorPoint: "top" 182 555 mark 0
LayerCount: 2
UndoRedoHistory
Layer: 1
Undoes
EndUndoes
Redoes
EndRedoes
EndUndoRedoHistory
Fore
SplineSet
33 603 m 1
 33 679 l 1
 325 679 l 1
 325 603 l 1
 33 603 l 1
EndSplineSet
EndChar

StartChar: middot
Encoding: -1 183 247
Width: 509
VWidth: 0
Flags: W
LayerCount: 2
Fore
SplineSet
146 513 m 1
 146 723 l 1
 363 723 l 1
 363 513 l 1
 146 513 l 1
EndSplineSet
EndChar

StartChar: minus
Encoding: 422 8722 248
Width: 662
VWidth: 0
Flags: MW
LayerCount: 2
UndoRedoHistory
Layer: 1
Undoes
EndUndoes
Redoes
EndRedoes
EndUndoRedoHistory
Fore
SplineSet
89 191 m 1
 89 273 l 1
 573 273 l 1
 573 191 l 1
 89 191 l 1
EndSplineSet
EndChar

StartChar: multiply
Encoding: 149 215 249
Width: 607
VWidth: 0
Flags: MW
LayerCount: 2
UndoRedoHistory
Layer: 1
Undoes
EndUndoes
Redoes
EndRedoes
EndUndoRedoHistory
Fore
SplineSet
171 66 m 1
 107 130 l 1
 245 269 l 1
 107 407 l 1
 171 472 l 1
 310 333 l 1
 448 472 l 1
 512 407 l 1
 374 269 l 1
 512 131 l 1
 448 66 l 1
 310 204 l 1
 171 66 l 1
EndSplineSet
EndChar

StartChar: n
Encoding: 78 110 250
Width: 605
VWidth: 0
Flags: MW
AnchorPoint: "bottom" 330 0 basechar 0
AnchorPoint: "top" 340 562 basechar 0
LayerCount: 2
UndoRedoHistory
Layer: 1
Undoes
EndUndoes
Redoes
EndRedoes
EndUndoRedoHistory
Fore
SplineSet
83 0 m 1
 83 346 l 2
 83 435 77 501 77 501 c 1
 183 501 l 1
 183 428 l 1
 218 483 285 514 347 514 c 0
 475 514 533 436 533 277 c 2
 533 0 l 1
 432 0 l 1
 432 276 l 2
 432 378 411 432 327 432 c 0
 256 432 184 369 184 310 c 2
 184 0 l 1
 83 0 l 1
EndSplineSet
EndChar

StartChar: nine
Encoding: 25 57 254
Width: 607
VWidth: 0
Flags: MW
LayerCount: 2
UndoRedoHistory
Layer: 1
Undoes
EndUndoes
Redoes
EndRedoes
EndUndoRedoHistory
Fore
SplineSet
170 490 m 0
 170 408 207 345 296 345 c 0
 376 345 434 397 434 490 c 0
 434 566 388 636 301 636 c 0
 218 636 170 574 170 490 c 0
276 -11 m 0
 221 -11 164 1 99 34 c 1
 134 117 l 1
 181 89 226 77 269 77 c 0
 367 77 438 153 438 314 c 2
 438 336 l 1
 406 280 350 259 284 259 c 0
 148 259 65 353 65 487 c 0
 65 621 154 722 301 722 c 0
 458 722 541 604 541 377 c 0
 541 124 436 -11 276 -11 c 0
EndSplineSet
EndChar

StartChar: notequal
Encoding: 429 8800 255
Width: 668
VWidth: 0
Flags: MW
LayerCount: 2
UndoRedoHistory
Layer: 1
Undoes
EndUndoes
Redoes
EndRedoes
EndUndoRedoHistory
Fore
SplineSet
242 20 m 1
 165 32 l 1
 223 153 l 1
 84 153 l 1
 84 228 l 1
 261 228 l 1
 321 342 l 1
 84 342 l 1
 84 417 l 1
 357 417 l 1
 421 548 l 1
 500 537 l 1
 441 417 l 1
 594 417 l 1
 594 342 l 1
 406 342 l 1
 345 228 l 1
 594 228 l 1
 594 153 l 1
 308 153 l 1
 242 20 l 1
EndSplineSet
EndChar

StartChar: numbersign
Encoding: 3 35 257
Width: 623
VWidth: 0
Flags: MW
LayerCount: 2
UndoRedoHistory
Layer: 1
Undoes
EndUndoes
Redoes
EndRedoes
EndUndoRedoHistory
Fore
SplineSet
245 297 m 1
 355 297 l 1
 381 429 l 1
 271 429 l 1
 245 297 l 1
109 12 m 1
 151 228 l 1
 32 228 l 1
 37 297 l 1
 165 297 l 1
 189 429 l 1
 61 429 l 1
 66 498 l 1
 203 498 l 1
 243 704 l 1
 324 704 l 1
 284 498 l 1
 395 498 l 1
 434 704 l 1
 515 704 l 1
 475 498 l 1
 588 498 l 1
 583 429 l 1
 462 429 l 1
 437 297 l 1
 560 297 l 1
 554 228 l 1
 423 228 l 1
 381 12 l 1
 300 12 l 1
 342 228 l 1
 232 228 l 1
 190 12 l 1
 109 12 l 1
EndSplineSet
EndChar

StartChar: o
Encoding: 79 111 258
Width: 617
VWidth: 0
Flags: MW
AnchorPoint: "ogonek" 354 0 basechar 0
AnchorPoint: "bottom" 403 0 basechar 0
AnchorPoint: "top" 302 562 basechar 0
LayerCount: 2
UndoRedoHistory
Layer: 1
Undoes
EndUndoes
Redoes
EndRedoes
EndUndoRedoHistory
Fore
SplineSet
310 -11 m 0
 142 -11 50 101 50 250 c 0
 50 403 144 514 311 514 c 0
 479 514 568 403 568 250 c 0
 568 101 477 -11 310 -11 c 0
310 71 m 0
 414 71 462 146 462 250 c 0
 462 355 412 432 310 432 c 0
 207 432 155 356 155 250 c 0
 155 147 205 71 310 71 c 0
EndSplineSet
EndChar

StartChar: oe
Encoding: 273 339 263
Width: 969
VWidth: 0
Flags: MW
LayerCount: 2
UndoRedoHistory
Layer: 1
Undoes
EndUndoes
Redoes
EndRedoes
EndUndoRedoHistory
Fore
SplineSet
306 -11 m 0
 141 -11 47 101 47 249 c 0
 47 396 138 514 306 514 c 0
 400 514 463 471 500 409 c 1
 537 475 595 515 686 515 c 0
 830 515 909 407 909 252 c 2
 909 226 l 1
 549 226 l 1
 549 224 550 211 550 210 c 0
 557 127 616 71 710 71 c 0
 808 71 866 122 866 122 c 1
 896 48 l 1
 896 48 831 -11 700 -11 c 0
 617 -11 533 30 499 96 c 1
 467 30 389 -11 306 -11 c 0
308 71 m 0
 406 71 449 155 449 250 c 0
 449 354 407 432 305 432 c 0
 206 432 152 352 152 248 c 0
 152 151 200 71 308 71 c 0
550 305 m 1
 814 305 l 1
 814 312 l 1
 806 380 758 432 687 432 c 0
 612 432 560 371 550 305 c 1
EndSplineSet
EndChar

StartChar: ogonek
Encoding: 368 731 264
Width: 248
VWidth: 0
Flags: MW
AnchorPoint: "ogonek" 150 0 mark 0
LayerCount: 2
UndoRedoHistory
Layer: 1
Undoes
EndUndoes
Redoes
EndRedoes
EndUndoRedoHistory
Fore
SplineSet
17 -124 m 0
 17 -63 84 -14 129 8 c 1
 184 6 l 1
 142 -21 102 -72 102 -107 c 0
 102 -130 118 -144 155 -144 c 0
 179 -144 209 -136 228 -131 c 1
 228 -188 l 1
 197 -198 162 -204 131 -204 c 0
 69 -204 17 -181 17 -124 c 0
EndSplineSet
EndChar

StartChar: one
Encoding: 17 49 268
Width: 607
VWidth: 0
Flags: MW
LayerCount: 2
UndoRedoHistory
Layer: 1
Undoes
EndUndoes
Redoes
EndRedoes
EndUndoRedoHistory
Fore
SplineSet
140 0 m 1
 140 81 l 1
 275 81 l 1
 275 602 l 1
 236 582 184 561 131 542 c 1
 131 635 l 1
 182 653 250 686 293 711 c 1
 379 711 l 1
 379 81 l 1
 507 81 l 1
 507 0 l 1
 140 0 l 1
EndSplineSet
EndChar

StartChar: onehalf
Encoding: 123 189 269
Width: 1106
VWidth: 0
Flags: MW
LayerCount: 2
UndoRedoHistory
Layer: 1
Undoes
EndUndoes
Redoes
EndRedoes
EndUndoRedoHistory
Fore
SplineSet
249 0 m 1
 686 711 l 1
 774 711 l 1
 337 0 l 1
 249 0 l 1
671 0 m 1
 671 68 l 1
 818 192 870 246 870 292 c 0
 870 324 846 343 810 343 c 0
 773 343 734 322 705 292 c 1
 669 350 l 1
 705 390 760 412 815 412 c 0
 891 412 953 371 953 293 c 0
 953 212 865 139 776 67 c 1
 949 67 l 1
 949 0 l 1
 671 0 l 1
113 306 m 1
 113 367 l 1
 196 367 l 1
 196 636 l 1
 104 606 l 1
 104 669 l 1
 119 673 200 705 210 711 c 1
 273 711 l 1
 273 366 l 1
 348 366 l 1
 348 306 l 1
 113 306 l 1
EndSplineSet
EndChar

StartChar: onequarter
Encoding: 122 188 270
Width: 1000
VWidth: 0
Flags: MW
LayerCount: 2
UndoRedoHistory
Layer: 1
Undoes
EndUndoes
Redoes
EndRedoes
EndUndoRedoHistory
Fore
SplineSet
113 306 m 1
 113 367 l 1
 196 367 l 1
 196 636 l 1
 104 606 l 1
 104 669 l 1
 119 673 200 705 210 711 c 1
 273 711 l 1
 273 366 l 1
 348 366 l 1
 348 306 l 1
 113 306 l 1
261 0 m 1
 698 711 l 1
 787 711 l 1
 350 0 l 1
 261 0 l 1
661 152 m 1
 772 152 l 1
 772 307 l 1
 661 152 l 1
773 0 m 1
 773 93 l 1
 591 93 l 1
 591 143 l 1
 771 393 l 1
 848 393 l 1
 848 152 l 1
 905 152 l 1
 905 93 l 1
 847 93 l 1
 847 0 l 1
 773 0 l 1
EndSplineSet
EndChar

StartChar: ordfeminine
Encoding: 105 170 271
Width: 398
VWidth: 0
Flags: MW
LayerCount: 2
UndoRedoHistory
Layer: 1
Undoes
EndUndoes
Redoes
EndRedoes
EndUndoRedoHistory
Fore
SplineSet
172 422 m 0
 222 422 267 456 267 516 c 2
 267 526 l 1
 161 526 119 525 119 471 c 0
 119 439 142 422 172 422 c 0
165 366 m 0
 100 366 47 403 47 469 c 0
 47 533 92 572 182 572 c 2
 268 572 l 1
 268 593 l 2
 268 644 244 663 200 663 c 0
 144 663 87 637 87 637 c 1
 64 690 l 1
 64 690 123 722 207 722 c 0
 283 722 348 690 348 593 c 2
 348 447 l 2
 348 416 350 404 352 379 c 1
 276 379 l 1
 271 426 l 1
 257 396 221 366 165 366 c 0
EndSplineSet
EndChar

StartChar: ordmasculine
Encoding: 120 186 272
Width: 436
VWidth: 0
Flags: MW
LayerCount: 2
UndoRedoHistory
Layer: 1
Undoes
EndUndoes
Redoes
EndRedoes
EndUndoRedoHistory
Fore
SplineSet
221 360 m 0
 100 360 38 437 38 537 c 0
 38 635 104 711 220 711 c 0
 337 711 400 633 400 535 c 0
 400 439 337 360 221 360 c 0
220 428 m 0
 281 428 320 470 320 534 c 0
 320 602 281 644 220 644 c 0
 160 644 120 601 120 536 c 0
 120 468 156 428 220 428 c 0
EndSplineSet
EndChar

StartChar: oslash
Encoding: 182 248 273
Width: 614
VWidth: 0
Flags: MW
LayerCount: 2
UndoRedoHistory
Layer: 1
Undoes
EndUndoes
Redoes
EndRedoes
EndUndoRedoHistory
Fore
SplineSet
178 -103 m 1
 130 -82 l 1
 176 19 l 1
 94 62 50 147 50 250 c 0
 50 403 144 514 311 514 c 0
 342 514 371 508 397 501 c 1
 440 597 l 1
 488 576 l 1
 446 483 l 1
 526 440 568 355 568 250 c 0
 568 101 477 -11 310 -11 c 0
 279 -11 251 -7 225 -0 c 1
 178 -103 l 1
310 71 m 0
 414 71 462 146 462 250 c 0
 462 313 444 367 407 399 c 1
 260 78 l 1
 275 74 292 71 310 71 c 0
214 101 m 1
 361 424 l 1
 346 429 329 432 310 432 c 0
 207 432 155 356 155 250 c 0
 155 186 174 132 214 101 c 1
EndSplineSet
EndChar

StartChar: p
Encoding: 80 112 275
Width: 615
VWidth: 0
Flags: MW
AnchorPoint: "bottom" 403 0 basechar 0
AnchorPoint: "top" 329 495 basechar 0
LayerCount: 2
UndoRedoHistory
Layer: 1
Undoes
EndUndoes
Redoes
EndRedoes
EndUndoRedoHistory
Fore
SplineSet
321 71 m 0
 414 71 461 148 461 253 c 0
 461 357 413 432 322 432 c 0
 229 432 179 355 179 247 c 0
 179 145 227 71 321 71 c 0
83 -201 m 1
 83 352 l 2
 83 392 79 450 76 501 c 1
 182 501 l 1
 182 419 l 1
 198 466 264 514 343 514 c 0
 481 514 566 403 566 257 c 0
 566 107 479 -11 340 -11 c 0
 258 -11 196 37 182 76 c 1
 182 -201 l 1
 83 -201 l 1
EndSplineSet
EndChar

StartChar: paragraph
Encoding: 116 182 276
Width: 593
VWidth: 0
Flags: MW
LayerCount: 2
UndoRedoHistory
Layer: 1
Undoes
EndUndoes
Redoes
EndRedoes
EndUndoRedoHistory
Fore
SplineSet
230 -87 m 1
 230 394 l 1
 133 398 60 454 60 553 c 0
 60 678 155 711 291 711 c 2
 518 711 l 1
 518 634 l 1
 465 634 l 1
 465 -87 l 1
 392 -87 l 1
 392 634 l 1
 305 634 l 1
 305 -87 l 1
 230 -87 l 1
EndSplineSet
EndChar

StartChar: parenleft
Encoding: 8 40 277
Width: 318
VWidth: 0
Flags: MW
LayerCount: 2
UndoRedoHistory
Layer: 1
Undoes
EndUndoes
Redoes
EndRedoes
EndUndoRedoHistory
Fore
SplineSet
200 -84 m 1
 123 33 64 179 64 324 c 0
 64 476 116 611 197 740 c 1
 295 740 l 1
 212 609 165 466 165 324 c 0
 165 193 217 40 295 -84 c 1
 200 -84 l 1
EndSplineSet
EndChar

StartChar: parenright
Encoding: 9 41 278
Width: 318
VWidth: 0
Flags: MW
LayerCount: 2
UndoRedoHistory
Layer: 1
Undoes
EndUndoes
Redoes
EndRedoes
EndUndoRedoHistory
Fore
SplineSet
135 730 m 1
 212 613 271 467 271 322 c 0
 271 170 219 34 138 -94 c 1
 40 -94 l 1
 123 37 171 180 171 322 c 0
 171 453 118 605 40 730 c 1
 135 730 l 1
EndSplineSet
EndChar

StartChar: partialdiff
Encoding: 418 8706 279
Width: 567
VWidth: 0
Flags: MW
LayerCount: 2
UndoRedoHistory
Layer: 1
Undoes
EndUndoes
Redoes
EndRedoes
EndUndoRedoHistory
Fore
SplineSet
237 70 m 0
 330 70 388 155 409 317 c 1
 391 364 347 409 291 409 c 0
 203 409 134 314 134 205 c 0
 134 124 174 70 237 70 c 0
237 -12 m 0
 102 -12 32 83 32 207 c 0
 32 365 145 489 283 489 c 0
 356 489 402 449 417 416 c 1
 417 459 l 1
 414 582 358 659 271 659 c 0
 212 659 160 636 130 617 c 1
 124 692 l 1
 165 720 222 740 280 740 c 0
 429 740 521 638 521 409 c 0
 521 201 428 -12 237 -12 c 0
EndSplineSet
EndChar

StartChar: percent
Encoding: 5 37 280
Width: 881
VWidth: 0
Flags: MW
LayerCount: 2
UndoRedoHistory
Layer: 1
Undoes
EndUndoes
Redoes
EndRedoes
EndUndoRedoHistory
Fore
SplineSet
664 -12 m 0
 556 -12 494 67 494 171 c 0
 494 272 557 355 666 355 c 0
 776 355 836 274 836 172 c 0
 836 68 772 -12 664 -12 c 0
665 54 m 0
 726 54 750 99 750 172 c 0
 750 244 728 290 666 290 c 0
 603 290 580 241 580 171 c 0
 580 97 604 54 665 54 c 0
176 0 m 1
 626 711 l 1
 711 711 l 1
 261 0 l 1
 176 0 l 1
216 356 m 0
 107 356 45 429 45 539 c 0
 45 645 108 722 217 722 c 0
 327 722 388 648 388 540 c 0
 388 431 324 356 216 356 c 0
217 422 m 0
 278 422 302 467 302 540 c 0
 302 611 279 657 217 657 c 0
 154 657 132 609 132 539 c 0
 132 465 156 422 217 422 c 0
EndSplineSet
EndChar

StartChar: period
Encoding: 14 46 281
Width: 264
VWidth: 0
Flags: MW
LayerCount: 2
UndoRedoHistory
Layer: 1
Undoes
EndUndoes
Redoes
EndRedoes
EndUndoRedoHistory
Fore
SplineSet
67 0 m 1
 67 117 l 1
 191 117 l 1
 191 0 l 1
 67 0 l 1
EndSplineSet
EndChar

StartChar: periodcentered
Encoding: 117 183 282
Width: 252
VWidth: 0
Flags: MW
LayerCount: 2
UndoRedoHistory
Layer: 1
Undoes
EndUndoes
Redoes
EndRedoes
EndUndoRedoHistory
Fore
SplineSet
64 260 m 1
 64 377 l 1
 188 377 l 1
 188 260 l 1
 64 260 l 1
EndSplineSet
EndChar

StartChar: perthousand
Encoding: 411 8240 283
Width: 1283
VWidth: 0
Flags: MW
LayerCount: 2
UndoRedoHistory
Layer: 1
Undoes
EndUndoes
Redoes
EndRedoes
EndUndoRedoHistory
Fore
SplineSet
1067 54 m 0
 1128 54 1152 99 1152 172 c 0
 1152 243 1130 289 1068 289 c 0
 1005 289 982 241 982 171 c 0
 982 97 1006 54 1067 54 c 0
1067 -12 m 0
 958 -12 896 67 896 171 c 0
 896 272 959 355 1068 355 c 0
 1178 355 1239 274 1239 172 c 0
 1239 68 1175 -12 1067 -12 c 0
EndSplineSet
Refer: 280 37 N 1 0 0 1 0 0 2
EndChar

StartChar: pi
Encoding: 375 960 284
Width: 628
VWidth: 0
Flags: MW
LayerCount: 2
UndoRedoHistory
Layer: 1
Undoes
EndUndoes
Redoes
EndRedoes
EndUndoRedoHistory
Fore
SplineSet
516 -7 m 0
 441 -7 400 33 400 133 c 2
 400 425 l 1
 253 425 l 1
 253 425 236 71 188 0 c 1
 88 0 l 1
 139 80 154 273 161 425 c 1
 103 424 59 413 35 396 c 1
 26 470 l 1
 50 490 99 501 174 501 c 2
 593 501 l 1
 593 425 l 1
 494 425 l 1
 494 143 l 2
 494 114 495 73 542 73 c 0
 552 73 566 76 581 80 c 1
 581 70 579 51 579 42 c 0
 579 27 581 15 585 0 c 1
 560 -4 535 -7 516 -7 c 0
EndSplineSet
EndChar

StartChar: plus
Encoding: 11 43 285
Width: 597
VWidth: 0
Flags: MW
LayerCount: 2
UndoRedoHistory
Layer: 1
Undoes
EndUndoes
Redoes
EndRedoes
EndUndoRedoHistory
Fore
SplineSet
251 46 m 1
 251 245 l 1
 65 245 l 1
 65 330 l 1
 252 330 l 1
 252 524 l 1
 345 524 l 1
 345 330 l 1
 533 330 l 1
 533 245 l 1
 345 245 l 1
 345 46 l 1
 251 46 l 1
EndSplineSet
EndChar

StartChar: plusminus
Encoding: 112 177 286
Width: 607
VWidth: 0
Flags: MW
LayerCount: 2
UndoRedoHistory
Layer: 1
Undoes
EndUndoes
Redoes
EndRedoes
EndUndoRedoHistory
Fore
SplineSet
91 0 m 1
 91 69 l 1
 520 69 l 1
 520 0 l 1
 91 0 l 1
257 130 m 1
 257 290 l 1
 94 290 l 1
 94 373 l 1
 255 373 l 1
 255 533 l 1
 349 533 l 1
 349 373 l 1
 512 373 l 1
 512 290 l 1
 353 290 l 1
 353 130 l 1
 257 130 l 1
EndSplineSet
EndChar

StartChar: product
Encoding: 420 8719 287
Width: 765
VWidth: 0
Flags: MW
LayerCount: 2
UndoRedoHistory
Layer: 1
Undoes
EndUndoes
Redoes
EndRedoes
EndUndoRedoHistory
Fore
SplineSet
132 -49 m 1
 132 626 l 1
 54 626 l 1
 54 711 l 1
 699 711 l 1
 699 626 l 1
 631 626 l 1
 631 -49 l 1
 524 -49 l 1
 524 626 l 1
 237 626 l 1
 237 -49 l 1
 132 -49 l 1
EndSplineSet
EndChar

StartChar: q
Encoding: 81 113 288
Width: 612
VWidth: 0
Flags: MW
LayerCount: 2
UndoRedoHistory
Layer: 1
Undoes
EndUndoes
Redoes
EndRedoes
EndUndoRedoHistory
Fore
SplineSet
295 71 m 0
 390 71 438 148 438 256 c 0
 438 358 388 432 297 432 c 0
 204 432 155 356 155 250 c 0
 155 147 201 71 295 71 c 0
434 -201 m 1
 434 62 l 1
 403 24 351 -11 283 -11 c 0
 135 -11 50 105 50 252 c 0
 50 401 138 514 286 514 c 0
 346 514 400 486 435 437 c 1
 435 501 l 1
 538 501 l 1
 537 475 534 401 534 377 c 2
 534 -201 l 1
 434 -201 l 1
EndSplineSet
EndChar

StartChar: question
Encoding: 31 63 289
Width: 509
VWidth: 0
Flags: MW
LayerCount: 2
UndoRedoHistory
Layer: 1
Undoes
EndUndoes
Redoes
EndRedoes
EndUndoRedoHistory
Fore
SplineSet
166 0 m 1
 166 115 l 1
 260 115 l 1
 260 0 l 1
 166 0 l 1
173 190 m 1
 173 259 l 2
 173 383 353 441 353 547 c 0
 353 611 301 636 238 636 c 0
 179 636 118 613 95 601 c 1
 95 689 l 1
 122 702 182 722 249 722 c 0
 365 722 457 667 457 551 c 0
 457 405 254 356 254 233 c 2
 254 190 l 1
 173 190 l 1
EndSplineSet
EndChar

StartChar: quotedbl
Encoding: 2 34 291
Width: 372
VWidth: 0
Flags: MW
LayerCount: 2
UndoRedoHistory
Layer: 1
Undoes
EndUndoes
Redoes
EndRedoes
EndUndoRedoHistory
Fore
SplineSet
236 469 m 1
 213 711 l 1
 315 711 l 1
 297 469 l 1
 236 469 l 1
80 469 m 1
 57 711 l 1
 159 711 l 1
 141 469 l 1
 80 469 l 1
EndSplineSet
EndChar

StartChar: quotedblbase
Encoding: 406 8222 292
Width: 500
VWidth: 0
Flags: MW
LayerCount: 2
UndoRedoHistory
Layer: 1
Undoes
EndUndoes
Redoes
EndRedoes
EndUndoRedoHistory
Fore
SplineSet
250 -112 m 1
 303 113 l 1
 414 113 l 1
 335 -112 l 1
 250 -112 l 1
65 -112 m 1
 118 113 l 1
 229 113 l 1
 151 -112 l 1
 65 -112 l 1
EndSplineSet
EndChar

StartChar: quotedblleft
Encoding: 404 8220 293
Width: 500
VWidth: 0
Flags: MW
LayerCount: 2
UndoRedoHistory
Layer: 1
Undoes
EndUndoes
Redoes
EndRedoes
EndUndoRedoHistory
Fore
SplineSet
273 428 m 1
 354 711 l 1
 438 711 l 1
 385 428 l 1
 273 428 l 1
75 428 m 1
 160 711 l 1
 243 711 l 1
 189 428 l 1
 75 428 l 1
EndSplineSet
EndChar

StartChar: quotedblright
Encoding: 405 8221 294
Width: 500
VWidth: 0
Flags: MW
LayerCount: 2
UndoRedoHistory
Layer: 1
Undoes
EndUndoes
Redoes
EndRedoes
EndUndoRedoHistory
Fore
SplineSet
275 428 m 1
 328 711 l 1
 438 711 l 1
 359 428 l 1
 275 428 l 1
94 428 m 1
 146 711 l 1
 257 711 l 1
 178 428 l 1
 94 428 l 1
EndSplineSet
EndChar

StartChar: quoteleft
Encoding: 401 8216 295
Width: 260
VWidth: 0
Flags: MW
LayerCount: 2
UndoRedoHistory
Layer: 1
Undoes
EndUndoes
Redoes
EndRedoes
EndUndoRedoHistory
Fore
SplineSet
203 428 m 1
 137 428 l 1
 60 711 l 1
 181 711 l 1
 203 428 l 1
EndSplineSet
EndChar

StartChar: quoteright
Encoding: 402 8217 296
Width: 274
VWidth: 0
Flags: MW
LayerCount: 2
UndoRedoHistory
Layer: 1
Undoes
EndUndoes
Redoes
EndRedoes
EndUndoRedoHistory
Fore
SplineSet
58 428 m 1
 96 711 l 1
 215 711 l 1
 131 428 l 1
 58 428 l 1
EndSplineSet
EndChar

StartChar: quotesinglbase
Encoding: 403 8218 297
Width: 304
VWidth: 0
Flags: MW
LayerCount: 2
UndoRedoHistory
Layer: 1
Undoes
EndUndoes
Redoes
EndRedoes
EndUndoRedoHistory
Fore
SplineSet
69 -154 m 1
 123 113 l 1
 230 113 l 1
 154 -154 l 1
 69 -154 l 1
EndSplineSet
EndChar

StartChar: quotesingle
Encoding: 7 39 298
Width: 244
VWidth: 0
Flags: MW
LayerCount: 2
UndoRedoHistory
Layer: 1
Undoes
EndUndoes
Redoes
EndRedoes
EndUndoRedoHistory
Fore
SplineSet
93 458 m 1
 74 711 l 1
 180 711 l 1
 166 458 l 1
 93 458 l 1
EndSplineSet
EndChar

StartChar: r
Encoding: 82 114 299
Width: 394
VWidth: 0
Flags: MW
AnchorPoint: "bottom" 165 -1 basechar 0
AnchorPoint: "top" 238 562 basechar 0
LayerCount: 2
UndoRedoHistory
Layer: 1
Undoes
EndUndoes
Redoes
EndRedoes
EndUndoRedoHistory
Fore
SplineSet
84 0 m 1
 84 377 l 2
 84 409 78 501 78 501 c 1
 184 501 l 1
 184 427 l 1
 216 481 259 513 314 513 c 0
 331 513 349 511 366 507 c 1
 366 418 l 1
 350 423 329 427 308 427 c 0
 237 427 186 375 186 280 c 2
 186 0 l 1
 84 0 l 1
EndSplineSet
EndChar

StartChar: radical
Encoding: 425 8730 301
Width: 658
VWidth: 0
Flags: MW
LayerCount: 2
UndoRedoHistory
Layer: 1
Undoes
EndUndoes
Redoes
EndRedoes
EndUndoRedoHistory
Fore
SplineSet
327 -72 m 1
 171 324 l 2
 170 324 90 310 90 310 c 1
 74 380 l 1
 236 408 l 1
 360 74 l 1
 546 769 l 1
 634 769 l 1
 410 -72 l 1
 327 -72 l 1
EndSplineSet
EndChar

StartChar: registered
Encoding: 109 174 304
Width: 841
VWidth: 0
Flags: MW
LayerCount: 2
UndoRedoHistory
Layer: 1
Undoes
EndUndoes
Redoes
EndRedoes
EndUndoRedoHistory
Fore
SplineSet
350 138 m 1
 262 138 l 1
 262 577 l 1
 405 577 l 2
 545 577 602 532 602 450 c 0
 602 396 582 347 505 330 c 1
 604 138 l 1
 506 138 l 1
 422 317 l 1
 350 317 l 1
 350 138 l 1
349 381 m 1
 402 381 l 2
 473 381 512 392 512 443 c 0
 512 500 491 507 405 507 c 2
 349 507 l 1
 349 381 l 1
421 40 m 0
 592 40 729 183 729 354 c 0
 729 526 592 673 421 673 c 0
 249 673 112 526 112 354 c 0
 112 183 249 40 421 40 c 0
420 722 m 0
 623 722 790 559 790 356 c 0
 790 153 623 -11 420 -11 c 0
 217 -11 52 153 52 356 c 0
 52 559 217 722 420 722 c 0
EndSplineSet
EndChar

StartChar: ring
Encoding: 367 730 305
Width: 317
VWidth: 0
Flags: MW
AnchorPoint: "top" 154 531 mark 0
LayerCount: 2
UndoRedoHistory
Layer: 1
Undoes
EndUndoes
Redoes
EndRedoes
EndUndoRedoHistory
Fore
SplineSet
160 722 m 0
 216 722 261 684 261 627 c 0
 261 570 216 530 160 530 c 0
 104 530 58 570 58 627 c 0
 58 684 104 722 160 722 c 0
159 680 m 0
 131 680 107 656 107 627 c 0
 107 598 131 574 159 574 c 0
 188 574 211 598 211 627 c 0
 211 656 188 680 159 680 c 0
EndSplineSet
EndChar

StartChar: s
Encoding: 83 115 306
Width: 482
VWidth: 0
Flags: MW
AnchorPoint: "bottom" 245 0 basechar 0
AnchorPoint: "top" 244 562 basechar 0
LayerCount: 2
UndoRedoHistory
Layer: 1
Undoes
EndUndoes
Redoes
EndRedoes
EndUndoRedoHistory
Fore
SplineSet
260 -11 m 0
 160 -11 90 29 64 50 c 1
 91 125 l 1
 125 100 189 71 252 71 c 0
 301 71 343 86 343 138 c 0
 343 179 310 190 229 218 c 1
 143 249 67 275 67 373 c 0
 67 474 159 513 247 513 c 0
 325 513 383 490 418 468 c 1
 391 396 l 1
 369 408 312 432 259 432 c 0
 202 432 167 412 167 375 c 0
 167 334 195 327 282 295 c 0
 371 263 438 238 438 140 c 0
 438 28 345 -11 260 -11 c 0
EndSplineSet
EndChar

StartChar: section
Encoding: 102 167 312
Width: 527
VWidth: 0
Flags: MW
LayerCount: 2
UndoRedoHistory
Layer: 1
Undoes
EndUndoes
Redoes
EndRedoes
EndUndoRedoHistory
Fore
SplineSet
249 -35 m 0
 200 -35 145 -26 98 -7 c 1
 98 76 l 1
 152 53 202 42 242 42 c 0
 306 42 347 69 347 114 c 2
 347 115 l 2
 347 150 302 167 197 216 c 0
 131 246 90 288 90 348 c 0
 90 398 131 444 178 467 c 1
 136 496 102 529 102 583 c 0
 102 679 187 722 290 722 c 0
 334 722 376 718 419 704 c 1
 419 630 l 1
 383 643 343 651 306 651 c 0
 249 651 202 632 202 587 c 0
 202 553 241 527 316 493 c 0
 389 459 450 422 450 352 c 0
 450 303 413 259 370 229 c 1
 412 206 447 172 447 118 c 0
 447 16 357 -35 249 -35 c 0
303 265 m 1
 323 281 347 309 347 340 c 0
 347 388 297 405 247 429 c 1
 226 417 188 389 188 356 c 0
 188 315 234 295 303 265 c 1
EndSplineSet
EndChar

StartChar: semicolon
Encoding: 27 59 313
Width: 264
VWidth: 0
Flags: MW
LayerCount: 2
UndoRedoHistory
Layer: 1
Undoes
EndUndoes
Redoes
EndRedoes
EndUndoRedoHistory
Fore
SplineSet
86 403 m 1
 86 521 l 1
 200 521 l 1
 200 403 l 1
 86 403 l 1
43 -130 m 1
 96 116 l 1
 209 116 l 1
 126 -130 l 1
 43 -130 l 1
EndSplineSet
EndChar

StartChar: seven
Encoding: 23 55 314
Width: 607
VWidth: 0
Flags: MW
LayerCount: 2
UndoRedoHistory
Layer: 1
Undoes
EndUndoes
Redoes
EndRedoes
EndUndoRedoHistory
Fore
SplineSet
168 0 m 1
 420 625 l 1
 81 625 l 1
 81 711 l 1
 538 711 l 1
 538 633 l 1
 279 0 l 1
 168 0 l 1
EndSplineSet
EndChar

StartChar: six
Encoding: 22 54 315
Width: 607
VWidth: 0
Flags: MW
LayerCount: 2
UndoRedoHistory
Layer: 1
Undoes
EndUndoes
Redoes
EndRedoes
EndUndoRedoHistory
Fore
SplineSet
325 77 m 0
 406 77 455 143 455 228 c 0
 455 313 412 378 326 378 c 0
 243 378 187 320 187 240 c 0
 187 138 243 77 325 77 c 0
325 -11 m 0
 152 -11 70 131 70 339 c 0
 70 550 164 722 351 722 c 0
 422 722 481 702 522 666 c 1
 487 589 l 1
 449 619 404 636 352 636 c 0
 241.267984058 636 179 516.982101332 179 378 c 1
 214 430 267 463 341 463 c 0
 471 463 562 372 562 229 c 0
 562 92 471 -11 325 -11 c 0
EndSplineSet
EndChar

StartChar: slash
Encoding: 15 47 316
Width: 465
VWidth: 0
Flags: MW
LayerCount: 2
UndoRedoHistory
Layer: 1
Undoes
EndUndoes
Redoes
EndRedoes
EndUndoRedoHistory
Fore
SplineSet
59 0 m 1
 330 711 l 1
 424 711 l 1
 151 0 l 1
 59 0 l 1
EndSplineSet
EndChar

StartChar: sterling
Encoding: 98 163 318
Width: 595
VWidth: 0
Flags: MW
LayerCount: 2
UndoRedoHistory
Layer: 1
Undoes
EndUndoes
Redoes
EndRedoes
EndUndoRedoHistory
Fore
SplineSet
77 0 m 1
 77 79 l 1
 124 117 167 176 167 293 c 2
 167 338 l 1
 74 338 l 1
 74 404 l 1
 166 404 l 1
 166 451 l 2
 166 602 208 722 389 722 c 0
 455 722 495 709 529 687 c 1
 502 610 l 1
 474.836768126 624.551731361 445.79128838 640.044586658 399.342580376 640.044586658 c 0
 397.911719772 640.044586658 396.464344221 640.029884576 395 640 c 0
 305 639 268 585 268 474 c 2
 268 404 l 1
 441 404 l 1
 441 338 l 1
 268 338 l 1
 268 292 l 2
 268 189 229 117 201 84 c 1
 516 84 l 1
 516 0 l 1
 77 0 l 1
EndSplineSet
EndChar

StartChar: summation
Encoding: 421 8721 319
Width: 593
VWidth: 0
Flags: MW
LayerCount: 2
UndoRedoHistory
Layer: 1
Undoes
EndUndoes
Redoes
EndRedoes
EndUndoRedoHistory
Fore
SplineSet
68 -55 m 1
 68 0 l 1
 309 331 l 1
 78 659 l 1
 78 711 l 1
 519 711 l 1
 519 630 l 1
 202 630 l 1
 417 333 l 1
 191 28 l 1
 539 28 l 1
 539 -55 l 1
 68 -55 l 1
EndSplineSet
EndChar

StartChar: t
Encoding: 84 116 320
Width: 397
VWidth: 0
Flags: MW
AnchorPoint: "bottom" 247 0 basechar 0
AnchorPoint: "top" 183 618 basechar 0
LayerCount: 2
UndoRedoHistory
Layer: 1
Undoes
EndUndoes
Redoes
EndRedoes
EndUndoRedoHistory
Fore
SplineSet
359 0 m 1
 313 0 l 2
 173 0 117 35 117 177 c 2
 117 434 l 1
 21 434 l 1
 21 501 l 1
 119 501 l 1
 119 626 l 1
 217 655 l 1
 217 501 l 1
 358 501 l 1
 358 434 l 1
 217 434 l 1
 217 171 l 2
 217 88 246 78 359 78 c 1
 359 0 l 1
EndSplineSet
EndChar

StartChar: tbar
Encoding: 293 359 321
Width: 373
VWidth: 0
Flags: MW
LayerCount: 2
UndoRedoHistory
Layer: 1
Undoes
EndUndoes
Redoes
EndRedoes
EndUndoRedoHistory
Fore
SplineSet
26 275 m 1
 26 335 l 1
 330 335 l 1
 330 275 l 1
 26 275 l 1
EndSplineSet
Refer: 320 116 N 1 0 0 1 0 0 2
EndChar

StartChar: thorn
Encoding: 188 254 323
Width: 602
VWidth: 0
Flags: MW
LayerCount: 2
UndoRedoHistory
Layer: 1
Undoes
EndUndoes
Redoes
EndRedoes
EndUndoRedoHistory
Fore
SplineSet
308 69 m 0
 406 69 448 157 448 254 c 0
 448 345 414 432 312 432 c 0
 206 432 170 340 170 241 c 0
 170 142 217 69 308 69 c 0
73 -201 m 1
 73 711 l 1
 171 711 l 1
 171 435 l 1
 200 484 260 513 324 513 c 0
 480 513 554 395 554 257 c 0
 554 117 480 -11 324 -11 c 0
 264 -11 203 12 171 60 c 1
 171 -201 l 1
 73 -201 l 1
EndSplineSet
EndChar

StartChar: three
Encoding: 19 51 324
Width: 607
VWidth: 0
Flags: MW
LayerCount: 2
UndoRedoHistory
Layer: 1
Undoes
EndUndoes
Redoes
EndRedoes
EndUndoRedoHistory
Fore
SplineSet
290 -11 m 0
 168 -11 89 40 85 42 c 1
 115 122 l 1
 128 116 199 77 279 77 c 0
 369 77 428 124 428 202 c 0
 428 290.848608849 352.957555843 329.019203462 238.470707993 329.019203462 c 0
 236.987070318 329.019203462 235.496808496 329.012793235 234 329 c 1
 201 328 l 1
 200 416 l 1
 232 416 l 2
 349 416 410 444 410 539 c 0
 410 604 343 636 275 636 c 0
 194 636 145 600 115 576 c 1
 68 647 l 1
 126 699 187 722 288 722 c 0
 401 722 513 663 513 541 c 0
 513 461 469 393 382 374 c 1
 475 355 530 288 530 198 c 0
 530 67 422 -11 290 -11 c 0
EndSplineSet
EndChar

StartChar: threequarters
Encoding: 124 190 325
Width: 1101
VWidth: 0
Flags: MW
LayerCount: 2
UndoRedoHistory
Layer: 1
Undoes
EndUndoes
Redoes
EndRedoes
EndUndoRedoHistory
Fore
SplineSet
272 0 m 1
 710 711 l 1
 798 711 l 1
 362 0 l 1
 272 0 l 1
241 294 m 0
 193 294 144 310 108 341 c 1
 138 391 l 1
 173 366 207 354 236 354 c 0
 280 354 311 383 311 422 c 0
 311 461 276 481 220 481 c 2
 184 481 l 1
 184 540 l 1
 218 540 l 2
 265 540 300 561 300 597 c 0
 300 633 273 654 235 654 c 0
 203 654 168 641 135 619 c 1
 106 667 l 1
 145 695 196 711 244 711 c 0
 315 711 376 676 376 604 c 0
 376 570 356 535 305 517 c 1
 362 500 389 462 389 420 c 0
 389 337 320 294 241 294 c 0
773 0 m 1
 773 93 l 1
 591 93 l 1
 591 143 l 1
 771 393 l 1
 848 393 l 1
 848 152 l 1
 905 152 l 1
 905 93 l 1
 847 93 l 1
 847 0 l 1
 773 0 l 1
661 152 m 1
 772 152 l 1
 772 307 l 1
 661 152 l 1
EndSplineSet
EndChar

StartChar: tilde
Encoding: 369 732 326
Width: 336
VWidth: 0
Flags: MW
AnchorPoint: "top" 176 534 mark 0
LayerCount: 2
UndoRedoHistory
Layer: 1
Undoes
EndUndoes
Redoes
EndRedoes
EndUndoRedoHistory
Fore
SplineSet
2 569 m 1
 2 643 38 694 97 694 c 0
 149 694 203 646 236 645 c 0
 236.91975531 644.956202128 237.820328084 644.933505046 238.701718323 644.933505046 c 0
 257.944370646 644.933505046 268.043797872 655.751914876 269 694 c 1
 335 694 l 1
 335 613.678376965 301.418097941 566.938655989 242.712891698 566.938655989 c 0
 241.486205008 566.938655989 240.248548718 566.959063976 239 567 c 0
 196 568 135 617 102 617 c 0
 83 617 69 602 66 569 c 1
 2 569 l 1
EndSplineSet
EndChar

StartChar: trademark
Encoding: 417 8482 327
Width: 912
VWidth: 0
Flags: MW
LayerCount: 2
UndoRedoHistory
Layer: 1
Undoes
EndUndoes
Redoes
EndRedoes
EndUndoRedoHistory
Fore
SplineSet
153 332 m 1
 153 644 l 1
 35 644 l 1
 35 711 l 1
 346 711 l 1
 346 644 l 1
 230 644 l 1
 230 332 l 1
 153 332 l 1
405 332 m 1
 405 711 l 1
 490 711 l 1
 612 435 l 1
 735 711 l 1
 818 711 l 1
 818 332 l 1
 750 332 l 1
 750 598 l 1
 635 332 l 1
 586 332 l 1
 472 595 l 1
 472 332 l 1
 405 332 l 1
EndSplineSet
EndChar

StartChar: two
Encoding: 18 50 328
Width: 607
VWidth: 0
Flags: MW
LayerCount: 2
UndoRedoHistory
Layer: 1
Undoes
EndUndoes
Redoes
EndRedoes
EndUndoRedoHistory
Fore
SplineSet
294 722 m 0
 418 722 511 640 514 514 c 0
 514.0792967 511.251047737 514.118769611 508.518164722 514.118769611 505.800667667 c 0
 514.118769611 405.708196924 460.568234536 326.488937837 371 234 c 2
 227 86 l 1
 511 86 l 1
 511 0 l 1
 101 0 l 1
 101 81 l 1
 312 299 l 2
 385.861457035 375.666322492 413.393433815 435.723963384 413.393433815 499.604991669 c 0
 413.393433815 504.049196017 413.260179391 508.511905512 413 513 c 1
 410 588 359 636 287 636 c 0
 191 636 110 573 110 573 c 1
 77 654 l 1
 77 654 162 722 294 722 c 0
EndSplineSet
EndChar

StartChar: u
Encoding: 85 117 329
Width: 596
VWidth: 0
Flags: MW
AnchorPoint: "ogonek" 462 0 basechar 0
AnchorPoint: "bottom" 287 0 basechar 0
AnchorPoint: "top" 293 562 basechar 0
LayerCount: 2
UndoRedoHistory
Layer: 1
Undoes
EndUndoes
Redoes
EndRedoes
EndUndoRedoHistory
Fore
SplineSet
268 -11 m 0
 132 -11 73 77 73 189 c 2
 73 501 l 1
 173 501 l 1
 173 189 l 2
 173 108 214 71 286 71 c 0
 368 71 414 119 414 203 c 2
 414 501 l 1
 515 501 l 1
 515 127 l 2
 515 92 519 18 520 0 c 1
 416 0 l 1
 414 78 l 1
 395 40 351 -11 268 -11 c 0
EndSplineSet
EndChar

StartChar: underscore
Encoding: 63 95 337
Width: 470
VWidth: 0
Flags: MW
LayerCount: 2
UndoRedoHistory
Layer: 1
Undoes
EndUndoes
Redoes
EndRedoes
EndUndoRedoHistory
Fore
SplineSet
-4 -129 m 1
 -4 -50 l 1
 475 -50 l 1
 475 -129 l 1
 -4 -129 l 1
EndSplineSet
EndChar

StartChar: uni007F
Encoding: 440 127 339
Width: 742
VWidth: 0
Flags: MW
LayerCount: 2
UndoRedoHistory
Layer: 1
Undoes
EndUndoes
Redoes
EndRedoes
EndUndoRedoHistory
Fore
SplineSet
176 649 m 1
 176 61 l 1
 567 61 l 1
 567 649 l 1
 176 649 l 1
92 0 m 1
 92 711 l 1
 651 711 l 1
 651 0 l 1
 92 0 l 1
EndSplineSet
EndChar

StartChar: uni00AD
Encoding: 108 173 341
Width: 355
VWidth: 0
Flags: MW
LayerCount: 2
UndoRedoHistory
Layer: 1
Undoes
EndUndoes
Redoes
EndRedoes
EndUndoRedoHistory
Fore
SplineSet
29 582 m 1
 28 657 l 1
 320 657 l 1
 320 582 l 1
 29 582 l 1
EndSplineSet
EndChar

StartChar: uni00B2
Encoding: 113 178 342
Width: 564
VWidth: 0
Flags: MW
LayerCount: 2
UndoRedoHistory
Layer: 1
Undoes
EndUndoes
Redoes
EndRedoes
EndUndoRedoHistory
Fore
SplineSet
165 301 m 1
 165 356 l 1
 301 474 366 539 366 595 c 0
 366 627 342 646 303 646 c 0
 265 646 229 625 204 591 c 1
 166 641 l 1
 197 686 249 711 307 711 c 0
 382 711 440 670 440 596 c 0
 440 514 352 438 259 361 c 1
 438 361 l 1
 438 301 l 1
 165 301 l 1
EndSplineSet
EndChar

StartChar: uni00B3
Encoding: 114 179 343
Width: 542
VWidth: 0
Flags: MW
LayerCount: 2
UndoRedoHistory
Layer: 1
Undoes
EndUndoes
Redoes
EndRedoes
EndUndoRedoHistory
Fore
SplineSet
281 293 m 0
 233 293 184 309 150 340 c 1
 179 392 l 1
 211 367 247 354 277 354 c 0
 322 354 353 378 353 418 c 0
 353 460 316 480 256 480 c 2
 224 480 l 1
 224 541 l 1
 253 541 l 2
 304 541 341 558 341 597 c 0
 341 634 317 649 278 649 c 0
 245 649 208 635 177 613 c 1
 148 664 l 1
 184 693 237 711 284 711 c 0
 354 711 413 674 413 602 c 0
 413 566 397 529 339 514 c 1
 399 500 425 461 425 417 c 0
 425 337 360 293 281 293 c 0
EndSplineSet
EndChar

StartChar: uni00B9
Encoding: 119 185 344
Width: 534
VWidth: 0
Flags: MW
LayerCount: 2
UndoRedoHistory
Layer: 1
Undoes
EndUndoes
Redoes
EndRedoes
EndUndoRedoHistory
Fore
SplineSet
171 298 m 1
 171 361 l 1
 244 361 l 1
 244 621 l 1
 230 614 176 595 159 589 c 1
 159 658 l 1
 181 665 240 688 255 697 c 1
 314 702 l 1
 314 360 l 1
 383 360 l 1
 383 298 l 1
 171 298 l 1
EndSplineSet
EndChar

StartChar: dotlessj
Encoding: 361 567 394
Width: 245
VWidth: 0
Flags: MW
AnchorPoint: "top" 126 562 basechar 0
LayerCount: 2
UndoRedoHistory
Layer: 1
Undoes
EndUndoes
Redoes
EndRedoes
EndUndoRedoHistory
Fore
SplineSet
11 -204 m 0
 -8 -204 -30 -202 -55 -197 c 1
 -55 -118 l 1
 -33 -123 -19 -125 -9 -125 c 0
 47 -125 78 -79 78 21 c 2
 78 501 l 1
 170 501 l 1
 170 50 l 2
 170 -62 154 -204 11 -204 c 0
EndSplineSet
EndChar

StartChar: uni02C9
Encoding: 364 713 395
Width: 353
VWidth: 0
Flags: MW
LayerCount: 2
UndoRedoHistory
Layer: 1
Undoes
EndUndoes
Redoes
EndRedoes
EndUndoRedoHistory
Fore
SplineSet
33 589 m 1
 33 661 l 1
 320 661 l 1
 320 589 l 1
 33 589 l 1
EndSplineSet
EndChar

StartChar: dotaccentcmb
Encoding: 371 775 396
Width: 255
VWidth: 0
Flags: MW
AnchorPoint: "top" 124 516 mark 0
LayerCount: 2
UndoRedoHistory
Layer: 1
Undoes
EndUndoes
Redoes
EndRedoes
EndUndoRedoHistory
Fore
SplineSet
83 567 m 1
 83 656 l 1
 175 656 l 1
 175 567 l 1
 83 567 l 1
EndSplineSet
EndChar

StartChar: dblgravecmb
Encoding: 372 783 397
Width: 473
VWidth: 0
Flags: MW
AnchorPoint: "top" 293 532 mark 0
LayerCount: 2
UndoRedoHistory
Layer: 1
Undoes
EndUndoes
Redoes
EndRedoes
EndUndoRedoHistory
Fore
SplineSet
346 573 m 1
 207 775 l 1
 302 775 l 1
 413 573 l 1
 346 573 l 1
170 573 m 1
 16 775 l 1
 111 775 l 1
 238 573 l 1
 170 573 l 1
EndSplineSet
EndChar

StartChar: uni0311
Encoding: 373 785 398
Width: 307
VWidth: 0
Flags: MW
AnchorPoint: "top" 151 555 mark 0
LayerCount: 2
UndoRedoHistory
Layer: 1
Undoes
EndUndoes
Redoes
EndRedoes
EndUndoRedoHistory
Fore
SplineSet
16 581 m 1
 23 665 91 711 157 711 c 0
 221 711 286 668 291 581 c 1
 232 581 l 1
 226 623 191 644 156 644 c 0
 120 644 83 622 76 581 c 1
 16 581 l 1
EndSplineSet
EndChar

StartChar: uni2015
Encoding: 400 8213 413
Width: 1083
VWidth: 0
Flags: MW
LayerCount: 2
UndoRedoHistory
Layer: 1
Undoes
EndUndoes
Redoes
EndRedoes
EndUndoRedoHistory
Fore
SplineSet
42 233 m 1
 42 310 l 1
 1042 310 l 1
 1042 233 l 1
 42 233 l 1
EndSplineSet
EndChar

StartChar: uni2074
Encoding: 415 8308 414
Width: 602
VWidth: 0
Flags: MW
LayerCount: 2
UndoRedoHistory
Layer: 1
Undoes
EndUndoes
Redoes
EndRedoes
EndUndoRedoHistory
Fore
SplineSet
234 468 m 1
 343 468 l 1
 343 621 l 1
 234 468 l 1
344 320 m 1
 344 412 l 1
 160 412 l 1
 160 460 l 1
 339 711 l 1
 412 711 l 1
 412 468 l 1
 466 468 l 1
 466 412 l 1
 411 412 l 1
 411 320 l 1
 344 320 l 1
EndSplineSet
EndChar

StartChar: uni2206
Encoding: 419 8710 415
Width: 639
VWidth: 0
Flags: MW
LayerCount: 2
UndoRedoHistory
Layer: 1
Undoes
EndUndoes
Redoes
EndRedoes
EndUndoRedoHistory
Fore
SplineSet
138 77 m 1
 498 77 l 1
 317 582 l 1
 138 77 l 1
29 0 m 1
 29 45 l 1
 275 690 l 1
 365 690 l 1
 609 45 l 1
 609 0 l 1
 29 0 l 1
EndSplineSet
EndChar

StartChar: uniFB00
Encoding: 433 64256 418
Width: 676
VWidth: 0
Flags: MW
LayerCount: 2
UndoRedoHistory
Layer: 1
Undoes
EndUndoes
Redoes
EndRedoes
EndUndoRedoHistory
Fore
SplineSet
441 0 m 1
 441 440 l 1
 215 440 l 1
 215 0 l 1
 123 0 l 1
 123 440 l 1
 34 440 l 1
 34 501 l 1
 123 501 l 1
 123 538 l 2
 123 666 144 722 317 722 c 2
 340 722 l 1
 339 652 l 1
 224 652 215 630 215 546 c 2
 215 501 l 1
 441 501 l 1
 441 538 l 2
 441 666 462 722 635 722 c 2
 659 722 l 1
 657 652 l 1
 542 652 534 630 534 546 c 2
 534 501 l 1
 653 501 l 1
 653 440 l 1
 534 440 l 1
 534 0 l 1
 441 0 l 1
EndSplineSet
EndChar

StartChar: uniFB01
Encoding: 434 64257 419
Width: 604
VWidth: 0
Flags: MW
LayerCount: 2
UndoRedoHistory
Layer: 1
Undoes
EndUndoes
Redoes
EndRedoes
EndUndoRedoHistory
Fore
SplineSet
123 0 m 1
 123 440 l 1
 34 440 l 1
 34 501 l 1
 123 501 l 1
 123 538 l 2
 123 666 144 722 317 722 c 2
 340 722 l 1
 339 652 l 1
 224 652 215 630 215 546 c 2
 215 501 l 1
 447 501 l 1
 447 440 l 1
 215 440 l 1
 215 0 l 1
 123 0 l 1
EndSplineSet
Refer: 218 105 N 1 0 0 1 349 0 2
EndChar

StartChar: uniFB02
Encoding: 435 64258 420
Width: 622
VWidth: 0
Flags: MW
LayerCount: 2
UndoRedoHistory
Layer: 1
Undoes
EndUndoes
Redoes
EndRedoes
EndUndoRedoHistory
Fore
SplineSet
222 440 m 1
 222 0 l 1
 130 0 l 1
 130 440 l 1
 34 440 l 1
 34 501 l 1
 130 501 l 1
 130 534 l 2
 130 663 171 715 353 715 c 2
 542 715 l 1
 542 0 l 1
 450 0 l 1
 450 644 l 1
 360 644 l 2
 242 644 222 621 222 549 c 2
 222 501 l 1
 341 501 l 1
 341 440 l 1
 222 440 l 1
EndSplineSet
EndChar

StartChar: uniFB03
Encoding: 436 64259 421
Width: 909
VWidth: 0
Flags: MW
LayerCount: 2
UndoRedoHistory
Layer: 1
Undoes
EndUndoes
Redoes
EndRedoes
EndUndoRedoHistory
Fore
SplineSet
737 626 m 1
 737 711 l 1
 829 711 l 1
 829 626 l 1
 737 626 l 1
431 0 m 1
 431 440 l 1
 215 440 l 1
 215 0 l 1
 123 0 l 1
 123 440 l 1
 34 440 l 1
 34 501 l 1
 123 501 l 1
 123 537 l 2
 123 665 144 722 317 722 c 2
 340 722 l 1
 339 651 l 1
 224 651 215 629 215 545 c 2
 215 501 l 1
 431 501 l 1
 431 537 l 2
 431 665 451 722 624 722 c 2
 647 722 l 1
 646 651 l 1
 531 651 523 629 523 545 c 2
 523 501 l 1
 829 501 l 1
 829 0 l 1
 737 0 l 1
 737 440 l 1
 523 440 l 1
 523 0 l 1
 431 0 l 1
EndSplineSet
EndChar

StartChar: uniFB04
Encoding: 437 64260 422
Width: 948
VWidth: 0
Flags: MW
LayerCount: 2
UndoRedoHistory
Layer: 1
Undoes
EndUndoes
Redoes
EndRedoes
EndUndoRedoHistory
Fore
SplineSet
549 440 m 1
 549 0 l 1
 458 0 l 1
 458 440 l 1
 215 440 l 1
 215 0 l 1
 123 0 l 1
 123 440 l 1
 33 440 l 1
 33 501 l 1
 123 501 l 1
 123 538 l 2
 123 666 143 722 316 722 c 2
 340 722 l 1
 340 652 l 1
 225 652 215 630 215 546 c 2
 215 501 l 1
 458 501 l 1
 458 534 l 2
 458 663 499 715 681 715 c 2
 868 715 l 1
 868 0 l 1
 776 0 l 1
 776 644 l 1
 688 644 l 2
 570 644 549 621 549 549 c 2
 549 501 l 1
 668 501 l 1
 668 440 l 1
 549 440 l 1
EndSplineSet
EndChar

StartChar: v
Encoding: 86 118 426
Width: 525
VWidth: 0
Flags: MW
LayerCount: 2
UndoRedoHistory
Layer: 1
Undoes
EndUndoes
Redoes
EndRedoes
EndUndoRedoHistory
Fore
SplineSet
216 0 m 1
 6 501 l 1
 116 501 l 1
 166.714849382 369.381516049 218.856538013 239.189871346 268 106 c 1
 313.01987117 241.313462163 365.236319668 369.430346999 414 501 c 1
 521 501 l 1
 311 0 l 1
 216 0 l 1
EndSplineSet
EndChar

StartChar: w
Encoding: 87 119 427
Width: 805
VWidth: 0
Flags: MW
AnchorPoint: "bottom" 410 0 basechar 0
AnchorPoint: "top" 412 500 basechar 0
LayerCount: 2
UndoRedoHistory
Layer: 1
Undoes
EndUndoes
Redoes
EndRedoes
EndUndoRedoHistory
Fore
SplineSet
273 0 m 1
 183 0 l 1
 12 501 l 1
 118 501 l 1
 157.319462367 373.986129034 196.870946721 247.204280054 236 120 c 1
 279.535725876 246.464274124 321.953425114 374.046574886 365 501 c 1
 458 501 l 1
 562 177 l 1
 582 119 l 1
 620.17077878 246.82922122 659.384090836 373.615909164 698 501 c 1
 793 501 l 1
 619 0 l 1
 529 0 l 1
 487.683189195 125.016522528 446.093656422 249.760323089 405 375 c 1
 361.895275101 249.104724899 316.932195984 125.067804016 273 0 c 1
EndSplineSet
EndChar

StartChar: x
Encoding: 88 120 432
Width: 503
VWidth: 0
Flags: MW
LayerCount: 2
UndoRedoHistory
Layer: 1
Undoes
EndUndoes
Redoes
EndRedoes
EndUndoRedoHistory
Fore
SplineSet
16 0 m 1
 199 248 l 1
 25 501 l 1
 135 501 l 1
 253 323 l 1
 381 501 l 1
 486 501 l 1
 308 257 l 1
 489 0 l 1
 380 0 l 1
 253 183 l 1
 121 0 l 1
 16 0 l 1
EndSplineSet
EndChar

StartChar: y
Encoding: 89 121 433
Width: 532
VWidth: 0
Flags: MW
AnchorPoint: "top" 266 530 basechar 0
LayerCount: 2
UndoRedoHistory
Layer: 1
Undoes
EndUndoes
Redoes
EndRedoes
EndUndoRedoHistory
Fore
SplineSet
112 -213 m 1
 71 -145 l 1
 164 -112 205 -67 221 -17 c 2
 229 7 l 1
 21 501 l 1
 126 501 l 1
 278 114 l 1
 416 501 l 1
 518 501 l 1
 315 -27 l 2
 277 -125 202 -189 112 -213 c 1
EndSplineSet
EndChar

StartChar: yen
Encoding: 100 165 437
Width: 605
VWidth: 0
Flags: MW
LayerCount: 2
UndoRedoHistory
Layer: 1
Undoes
EndUndoes
Redoes
EndRedoes
EndUndoRedoHistory
Fore
SplineSet
354 129 m 1
 354 0 l 1
 250 0 l 1
 250 129 l 1
 81 129 l 1
 81 192 l 1
 250 192 l 1
 250 275 l 1
 81 275 l 1
 81 341 l 1
 215 341 l 1
 3 711 l 1
 119 711 l 1
 304 370 l 1
 490 711 l 1
 607 711 l 1
 390 341 l 1
 521 341 l 1
 521 275 l 1
 354 275 l 1
 354 192 l 1
 521 192 l 1
 521 129 l 1
 354 129 l 1
EndSplineSet
EndChar

StartChar: z
Encoding: 90 122 439
Width: 477
VWidth: 0
Flags: MW
AnchorPoint: "bottom" 271 0 basechar 0
AnchorPoint: "top" 247 500 basechar 0
LayerCount: 2
UndoRedoHistory
Layer: 1
Undoes
EndUndoes
Redoes
EndRedoes
EndUndoRedoHistory
Fore
SplineSet
52 0 m 1
 52 54 l 1
 301 420 l 1
 59 420 l 1
 59 501 l 1
 431 501 l 1
 431 448 l 1
 182 81 l 1
 442 81 l 1
 442 0 l 1
 52 0 l 1
EndSplineSet
EndChar

StartChar: zero
Encoding: 16 48 443
Width: 607
VWidth: 0
Flags: MW
LayerCount: 2
UndoRedoHistory
Layer: 1
Undoes
EndUndoes
Redoes
EndRedoes
EndUndoRedoHistory
Fore
SplineSet
305 -11 m 0
 144 -11 61 140 61 359 c 0
 61 587 144 722 306 722 c 0
 469 722 547 582 547 358 c 0
 547 140 469 -11 305 -11 c 0
307 77 m 0
 408 77 439 197 439 358 c 0
 439 510 408 636 307 636 c 0
 203 636 167 510 167 359 c 0
 167 197 203 77 307 77 c 0
EndSplineSet
EndChar

StartChar: acutecomb
Encoding: 441 769 444
Width: 0
VWidth: 0
Flags: MW
AnchorPoint: "top" -83 499 mark 0
LayerCount: 2
UndoRedoHistory
Layer: 1
Undoes
EndUndoes
Redoes
EndRedoes
EndUndoRedoHistory
Fore
SplineSet
-125 563 m 1
 -5 748 l 1
 125 748 l 1
 -37 563 l 1
 -125 563 l 1
EndSplineSet
EndChar

StartChar: caroncomb
Encoding: 442 780 445
Width: 0
VWidth: 0
Flags: MW
AnchorPoint: "top" -7 509 mark 0
LayerCount: 2
UndoRedoHistory
Layer: 1
Undoes
EndUndoes
Redoes
EndRedoes
EndUndoRedoHistory
Fore
SplineSet
-42 556 m 1
 -167 738 l 1
 -77 738 l 1
 -1 624 l 1
 75 738 l 1
 167 738 l 1
 42 556 l 1
 -42 556 l 1
EndSplineSet
EndChar

StartChar: circumflexcomb
Encoding: 443 770 446
Width: 0
VWidth: 0
Flags: MW
AnchorPoint: "top" 2 509 mark 0
LayerCount: 2
UndoRedoHistory
Layer: 1
Undoes
EndUndoes
Redoes
EndRedoes
EndUndoRedoHistory
Fore
SplineSet
-46 735 m 1
 45 735 l 1
 165 556 l 1
 77 556 l 1
 -0 667 l 1
 -79 556 l 1
 -165 556 l 1
 -46 735 l 1
EndSplineSet
EndChar

StartChar: gravecomb
Encoding: 444 768 447
Width: 0
VWidth: 0
Flags: MW
AnchorPoint: "top" 79 499 mark 0
LayerCount: 2
UndoRedoHistory
Layer: 1
Undoes
EndUndoes
Redoes
EndRedoes
EndUndoRedoHistory
Fore
SplineSet
40 563 m 1
 -127 748 l 1
 3 748 l 1
 126 563 l 1
 40 563 l 1
EndSplineSet
EndChar

StartChar: uni018F
Encoding: 445 399 448
Width: 727
VWidth: 0
Flags: MW
LayerCount: 2
Back
SplineSet
112.8984375 400.87890625 m 5
 601.66796875 400.87890625 l 5
 602.64453125 313.4765625 l 5
 113.875 313.4765625 l 5
 112.8984375 400.87890625 l 5
320.41796875 723.6328125 m 4
 502.05859375 723.6328125 672.46875 602.05078125 672.46875 361.328125 c 4
 672.46875 136.71875 519.1484375 -10.7421875 326.27734375 -10.7421875 c 4
 241.8046875 -10.7421875 165.14453125 8.7890625 97.76171875 63.4765625 c 5
 138.77734375 134.765625 l 5
 196.39453125 92.7734375 256.453125 77.1484375 317.48828125 77.1484375 c 4
 467.390625 77.1484375 563.09375 203.61328125 563.09375 360.3515625 c 4
 563.09375 532.2265625 457.13671875 635.7421875 314.55859375 635.7421875 c 4
 248.640625 635.7421875 181.74609375 614.2578125 115.33984375 563.4765625 c 5
 80.671875 646.97265625 l 5
 152.44921875 700.68359375 235.45703125 723.6328125 320.41796875 723.6328125 c 4
EndSplineSet
UndoRedoHistory
Layer: 1
Undoes
EndUndoes
Redoes
EndRedoes
EndUndoRedoHistory
Fore
SplineSet
142 313 m 1
 154 155 245 77 355 77 c 0
 470 77 548 179 563 313 c 1
 142 313 l 1
675 361 m 0
 675 136 537 -11 364 -11 c 0
 201 -11 39 87 39 388 c 2
 39 401 l 1
 564 401 l 1
 552 564 453 636 333 636 c 0
 261 636 182 610 109 562 c 1
 75 645 l 1
 162 699 255 726 341 726 c 0
 524 726 675 603 675 361 c 0
EndSplineSet
EndChar

StartChar: uni0259
Encoding: 446 601 449
Width: 570
VWidth: 0
Flags: MW
LayerCount: 2
UndoRedoHistory
Layer: 1
Undoes
EndUndoes
Redoes
EndRedoes
EndUndoRedoHistory
Fore
SplineSet
414 205 m 1
 143 205 l 1
 153 115 204 68 276 68 c 0
 348 68 401 119 414 205 c 1
259 514 m 0
 421 514 521 409 521 253 c 0
 521 103 426 -11 279 -11 c 0
 128 -11 55 101 55 250 c 0
 55 253 56 261 57 273 c 1
 417 273 l 1
 414 380 345 432 252 432 c 0
 194 432 143 415 96 377 c 1
 66 451 l 1
 120 493 185 514 259 514 c 0
EndSplineSet
EndChar

StartChar: uni02BC
Encoding: 447 700 450
Width: 247
VWidth: 0
Flags: MW
AnchorPoint: "bottom" 146 169 mark 0
LayerCount: 2
UndoRedoHistory
Layer: 1
Undoes
EndUndoes
Redoes
EndRedoes
EndUndoRedoHistory
Fore
SplineSet
32 -130 m 1
 85 116 l 1
 199 116 l 1
 115 -130 l 1
 32 -130 l 1
EndSplineSet
EndChar

StartChar: f_j
Encoding: 454 -1 457
Width: 604
VWidth: 0
Flags: MW
LayerCount: 2
UndoRedoHistory
Layer: 1
Undoes
EndUndoes
Redoes
EndRedoes
EndUndoRedoHistory
Fore
SplineSet
123 0 m 1
 123 440 l 1
 34 440 l 1
 34 501 l 1
 123 501 l 1
 123 538 l 2
 123 666 144 722 317 722 c 2
 340 722 l 1
 339 652 l 1
 224 652 215 630 215 546 c 2
 215 501 l 1
 538 501 l 1
 538 0 l 2
 538 -128 500 -191 376 -191 c 0
 337 -191 304 -182 294 -180 c 1
 303 -107 l 1
 303 -107 333 -116 365 -116 c 0
 419 -116 437 -89 437 6 c 2
 437 440 l 1
 215 440 l 1
 215 0 l 1
 123 0 l 1
439 620 m 1
 439 711 l 1
 538 711 l 1
 538 620 l 1
 439 620 l 1
EndSplineSet
EndChar
